<svg width="60" height="61" viewBox="0 0 60 61" fill="none" xmlns="http://www.w3.org/2000/svg">
<path d="M53.4899 0.555664H27.2399C25.748 0.555664 24.3173 1.14829 23.2624 2.20318C22.2075 3.25808 21.6149 4.68882 21.6149 6.18066V17.4307C21.6149 17.9279 21.8124 18.4049 22.164 18.7565C22.5157 19.1081 22.9926 19.3057 23.4899 19.3057C23.9871 19.3057 24.4641 19.1081 24.8157 18.7565C25.1673 18.4049 25.3649 17.9279 25.3649 17.4307V6.18066C25.3649 5.68338 25.5624 5.20647 25.914 4.85484C26.2657 4.50321 26.7426 4.30566 27.2399 4.30566H53.4899C53.9871 4.30566 54.4641 4.50321 54.8157 4.85484C55.1673 5.20647 55.3649 5.68338 55.3649 6.18066V56.8057H47.8649V43.6807C47.8649 43.1834 47.6673 42.7065 47.3157 42.3548C46.9641 42.0032 46.4871 41.8057 45.9899 41.8057H34.7399C34.2426 41.8057 33.7657 42.0032 33.414 42.3548C33.0624 42.7065 32.8649 43.1834 32.8649 43.6807V56.8057H27.2399C26.7426 56.8057 26.2657 57.0032 25.914 57.3548C25.5624 57.7065 25.3649 58.1834 25.3649 58.6807C25.3649 59.1779 25.5624 59.6549 25.914 60.0065C26.2657 60.3581 26.7426 60.5557 27.2399 60.5557H59.1149V6.18066C59.1149 4.68882 58.5222 3.25808 57.4673 2.20318C56.4124 1.14829 54.9817 0.555664 53.4899 0.555664ZM36.6149 56.8057V45.5557H44.1149V56.8057H36.6149ZM36.6149 19.3057H29.1149V11.8057H36.6149V19.3057ZM51.6149 19.3057H44.1149V11.8057H51.6149V19.3057ZM44.1149 26.8057H51.6149V34.3057H44.1149V26.8057ZM30.0336 34.3057H36.6149V26.8057H29.1149V32.5282C28.461 31.3232 27.646 30.213 26.6924 29.2282C23.851 26.395 20.0023 24.8041 15.9899 24.8041C11.9774 24.8041 8.12868 26.395 5.28736 29.2282C2.45423 32.0695 0.863281 35.9182 0.863281 39.9307C0.863281 43.9431 2.45423 47.7918 5.28736 50.6332L14.6624 60.0082C14.8368 60.1822 15.0438 60.3201 15.2716 60.414C15.4994 60.508 15.7435 60.5561 15.9899 60.5557C16.2363 60.5561 16.4803 60.508 16.7081 60.414C16.9359 60.3201 17.1429 60.1822 17.3174 60.0082L26.6924 50.6332C28.784 48.536 30.2153 45.8718 30.8091 42.97C31.4029 40.0682 31.1333 37.0559 30.0336 34.3057ZM15.9899 56.0294L7.94236 47.9782C5.80996 45.8428 4.61223 42.9484 4.61223 39.9307C4.61223 36.9129 5.80996 34.0185 7.94236 31.8832C8.99811 30.8251 10.2526 29.9863 11.6337 29.4148C13.0148 28.8433 14.4952 28.5505 15.9899 28.5532C17.4845 28.5505 18.965 28.8433 20.346 29.4148C21.7271 29.9863 22.9816 30.8251 24.0374 31.8832C26.1698 34.0185 27.3675 36.9129 27.3675 39.9307C27.3675 42.9484 26.1698 45.8428 24.0374 47.9782L15.9899 56.0294ZM21.6149 39.9307C21.6149 41.4225 21.0222 42.8533 19.9673 43.9081C18.9124 44.963 17.4817 45.5557 15.9899 45.5557C14.498 45.5557 13.0673 44.963 12.0124 43.9081C10.9575 42.8533 10.3649 41.4225 10.3649 39.9307C10.3649 38.4388 10.9575 37.0081 12.0124 35.9532C13.0673 34.8983 14.498 34.3057 15.9899 34.3057C17.4817 34.3057 18.9124 34.8983 19.9673 35.9532C21.0222 37.0081 21.6149 38.4388 21.6149 39.9307Z" fill="black"/>
</svg>
