<svg width="34" height="24" viewBox="0 0 34 24" fill="none" xmlns="http://www.w3.org/2000/svg">
<path d="M30.8182 0.84375H3.18359C1.42303 0.84375 -0.00390625 2.27069 -0.00390625 4.03125V19.9688C-0.00390625 21.7293 1.42303 23.1562 3.18359 23.1562H30.8182C32.5787 23.1562 34.0057 21.7293 34.0057 19.9688V4.03125C34.0057 2.27069 32.5787 0.84375 30.8182 0.84375ZM3.18253 2.96875H30.8171C31.4036 2.96875 31.8796 3.44475 31.8796 4.03125V6.15625H2.12003V4.03125C2.12003 3.44475 2.59709 2.96875 3.18253 2.96875ZM30.8182 21.0312H3.18359C2.59709 21.0312 2.12109 20.5553 2.12109 19.9688V10.4062H31.8807V19.9688C31.8807 20.5553 31.4047 21.0312 30.8182 21.0312Z" fill="white"/>
</svg>
