<svg width="39" height="33" viewBox="0 0 39 33" fill="none" xmlns="http://www.w3.org/2000/svg">
<g filter="url(#filter0_d_1393_2165)">
<path d="M11.334 13.6667C11.334 10.6811 11.334 9.18836 12.2615 8.26083C13.189 7.33333 14.6818 7.33333 17.6673 7.33333H22.4173H27.1673C30.1529 7.33333 31.6456 7.33333 32.5731 8.26083C33.5006 9.18836 33.5006 10.6811 33.5006 13.6667V15.25V16.8333C33.5006 19.8189 33.5006 21.3116 32.5731 22.2391C31.6456 23.1667 30.1529 23.1667 27.1673 23.1667H22.4173H17.6673C14.6818 23.1667 13.189 23.1667 12.2615 22.2391C11.334 21.3116 11.334 19.8189 11.334 16.8333V15.25V13.6667Z" stroke="white" stroke-width="2" stroke-linejoin="round"/>
<path d="M11.3333 16.8333C8.34777 16.8333 6.85499 16.8333 5.9275 15.9058C5 14.9783 5 13.4855 5 10.5V7.33333C5 4.34777 5 2.85499 5.9275 1.9275C6.85499 1 8.34777 1 11.3333 1H20.8333C23.8189 1 25.3116 1 26.2391 1.9275C27.1667 2.85499 27.1667 4.34777 27.1667 7.33333" stroke="white" stroke-width="2" stroke-linejoin="round"/>
<path d="M25.5833 15.25C25.5833 16.9989 24.1656 18.4167 22.4167 18.4167C20.6677 18.4167 19.25 16.9989 19.25 15.25C19.25 13.501 20.6677 12.0833 22.4167 12.0833C24.1656 12.0833 25.5833 13.501 25.5833 15.25Z" stroke="white" stroke-width="2"/>
</g>
<defs>
<filter id="filter0_d_1393_2165" x="0" y="0" width="38.5" height="32.1667" filterUnits="userSpaceOnUse" color-interpolation-filters="sRGB">
<feFlood flood-opacity="0" result="BackgroundImageFix"/>
<feColorMatrix in="SourceAlpha" type="matrix" values="0 0 0 0 0 0 0 0 0 0 0 0 0 0 0 0 0 0 127 0" result="hardAlpha"/>
<feOffset dy="4"/>
<feGaussianBlur stdDeviation="2"/>
<feComposite in2="hardAlpha" operator="out"/>
<feColorMatrix type="matrix" values="0 0 0 0 0 0 0 0 0 0 0 0 0 0 0 0 0 0 0.25 0"/>
<feBlend mode="normal" in2="BackgroundImageFix" result="effect1_dropShadow_1393_2165"/>
<feBlend mode="normal" in="SourceGraphic" in2="effect1_dropShadow_1393_2165" result="shape"/>
</filter>
</defs>
</svg>
