<?xml version="1.0" encoding="iso-8859-1"?>
<!-- Uploaded to: SVG Repo, www.svgrepo.com, Generator: SVG Repo Mixer Tools -->
<svg height="800px" width="800px" version="1.1" id="Layer_1" xmlns="http://www.w3.org/2000/svg" xmlns:xlink="http://www.w3.org/1999/xlink" 
	 viewBox="0 0 512 512" xml:space="preserve">
<path style="fill:#FFCD54;" d="M0,256.006C0,397.402,114.606,512.004,255.996,512C397.394,512.004,512,397.402,512,256.006
	C512.009,114.61,397.394,0,255.996,0C114.606,0,0,114.614,0,256.006z"/>
<path style="fill:#F4BA41;" d="M511.312,273.837c-0.237-0.241-0.469-0.485-0.716-0.716
	c-0.508-0.503-179.952-179.987-180.474-180.475c-13.436-13.31-31.606-20.886-50.836-20.886h-54.39
	c-19.137,0-36.123,7.618-47.833,21.453c-12.377,14.623-17.529,34.629-14.076,55.186l15.458,74.362
	c1.06,6.329,4.265,11.817,8.638,15.678c0.496,0.518,14.398,14.512,14.816,14.894c-3.234,0.571-6.449,1.362-9.6,2.417
	c-0.214-0.203-0.496-0.315-0.732-0.493c-0.441-0.583-46.431-46.574-47.013-47.013c-1.431-1.897-3.597-3.203-6.156-3.203h-7.809
	c-6.274,0-12.17,2.447-16.595,6.883c-4.506,4.522-6.975,10.558-6.956,17.005c0.108,33.551,14.608,62.698,36.621,85.107
	c0.494,0.517,104.045,104.043,104.499,104.507v6.019H208.96c-4.33,0-7.84,3.51-7.84,7.84c0,2.558,1.307,4.723,3.202,6.155
	c0.441,0.583,70.697,70.839,71.279,71.28c0.363,0.48,0.795,0.869,1.25,1.249C402.606,500.94,502.625,399.995,511.312,273.837z"/>
<g>
	<path style="fill:#F4F6F9;" d="M178.446,222.761c2.052,12.246,12.047,21.479,23.252,21.479h108.623
		c11.205,0,21.2-9.233,23.195-21.178l15.573-74.966c2.986-17.812-2.351-36.355-14.635-50.868
		c-13.697-16.186-33.806-25.469-55.167-25.469h-54.391c-19.137,0-36.123,7.618-47.833,21.453
		c-12.377,14.623-17.529,34.629-14.076,55.186L178.446,222.761z M189.03,103.342c8.683-10.256,21.419-15.902,35.866-15.902h54.39
		c16.74,0,32.485,7.258,43.2,19.918c9.437,11.148,13.391,24.699,11.194,37.849l-15.573,74.966c-0.762,4.544-4.325,8.387-7.787,8.387
		H201.698c-3.46,0-7.025-3.843-7.844-8.69l-15.458-74.362C175.766,129.806,179.641,114.439,189.03,103.342z"/>
	<path style="fill:#F4F6F9;" d="M404.96,228.583c0.019-6.332-2.393-12.254-6.795-16.668c-4.421-4.433-10.367-6.876-16.745-6.876
		H373.6c-4.33,0-7.84,3.51-7.84,7.84s3.51,7.84,7.84,7.84h7.821c2.178,0,4.185,0.804,5.638,2.267
		c1.439,1.443,2.228,3.414,2.221,5.551c-0.092,29.684-13.075,55.468-32.764,75.302c-6.636-42.199-36.095-51.759-61.316-51.759h-78.4
		c-25.242,0-54.724,9.579-61.328,51.863c-19.679-19.775-32.656-45.476-32.752-75.067c-0.007-2.247,0.838-4.337,2.381-5.884
		c1.462-1.467,3.411-2.274,5.489-2.274h7.809c4.33,0,7.84-3.51,7.84-7.84s-3.51-7.84-7.84-7.84h-7.809
		c-6.274,0-12.17,2.446-16.595,6.883c-4.506,4.521-6.975,10.558-6.956,17.005c0.243,75.425,72.998,128.812,141.12,132.666v62.966
		H208.96c-4.33,0-7.84,3.51-7.84,7.84c0,4.33,3.51,7.84,7.84,7.84h94.08c4.33,0,7.84-3.51,7.84-7.84c0-4.33-3.51-7.84-7.84-7.84
		h-39.2v-62.967C331.969,357.729,404.724,304.204,404.96,228.583z M216.8,267.76h78.4c30.673,0,45.31,15.066,46.884,48.599
		C317.215,335.188,285.823,346.16,256,346.16c-29.824,0-61.216-10.941-86.086-29.718C171.469,282.851,186.102,267.76,216.8,267.76z"
		/>
</g>
</svg>