<svg width="256" height="256" viewBox="0 0 256 256" fill="none" xmlns="http://www.w3.org/2000/svg">
<path d="M217.6 128H256V230.4C256 237.19 253.303 243.701 248.502 248.502C243.701 253.303 237.19 256 230.4 256H217.6V128ZM192 25.6V256H25.6C18.8105 256 12.299 253.303 7.49807 248.502C2.69713 243.701 0 237.19 0 230.4V25.6C0 18.8105 2.69713 12.299 7.49807 7.49807C12.299 2.69713 18.8105 0 25.6 0H166.4C173.19 0 179.701 2.69713 184.502 7.49807C189.303 12.299 192 18.8105 192 25.6ZM102.4 179.2H38.4V204.8H102.4V179.2ZM153.6 115.2H38.4V140.8H153.6V115.2ZM153.6 51.2H38.4V76.8H153.6V51.2Z" fill="#F86624"/>
</svg>
