<svg width="920" height="750" viewBox="0 0 920 750" fill="none" xmlns="http://www.w3.org/2000/svg">
<path d="M225.5 98.4456H262.5V89.9456" stroke="#4E4E4E"/>
<path d="M261 84.9455C256.5 74.9455 243 55.8455 225 59.4455" stroke="#4E4E4E" stroke-dasharray="8 8"/>
<path d="M513.631 50.3284C512.105 55.1164 513.007 61.3153 513.007 66.9359C513.839 72.5566 516.983 73.9675 519.734 73.9675C522.485 73.9675 533.512 74.2451 536.263 73.9675C539.015 73.6899 540.841 72.0014 541.766 67.491C542.69 62.9806 542.69 51.4386 539.315 46.3731C535.963 41.3076 531.663 40.3824 525.236 40.7062C518.809 41.03 515.134 45.5173 513.608 50.3053L513.631 50.3284Z" stroke="#2C2C2C" stroke-width="0.75" stroke-linejoin="round"/>
<path d="M513.859 67.5835V51.0223C513.859 49.6113 512.703 48.478 511.293 48.478C509.882 48.478 508.727 49.6113 508.727 51.0223V67.5835C508.727 68.9714 509.882 70.1279 511.293 70.1279C512.703 70.1279 513.859 68.9945 513.859 67.5835ZM513.628 40.8912C512.402 42.1171 512.402 44.8465 515.153 44.8465C517.904 44.8465 518.829 42.7185 526.782 42.7185C534.734 42.7185 540.56 46.35 541.785 43.6206C543.011 40.8912 536.584 35.7332 526.782 36.0108C517.003 36.3577 514.784 39.6653 513.628 40.8912ZM544.536 67.5835V51.0223C544.536 49.6113 543.381 48.478 541.97 48.478C540.56 48.478 539.404 49.6113 539.404 51.0223V67.5835C539.404 68.9714 540.56 70.1279 541.97 70.1279C543.381 70.1279 544.536 68.9945 544.536 67.5835Z" stroke="#2C2C2C" stroke-width="0.75" stroke-linejoin="round"/>
<path d="M513.631 136.835C512.105 132.047 513.007 125.849 513.007 120.228C513.839 114.584 516.983 113.173 519.734 113.173C522.485 113.173 533.512 112.896 536.263 113.173C539.015 113.474 540.841 115.162 541.766 119.65C542.69 124.16 542.69 135.702 539.315 140.768C535.963 145.833 531.663 146.735 525.236 146.434C518.809 146.134 515.134 141.623 513.608 136.835H513.631Z" stroke="#2C2C2C" stroke-width="0.75" stroke-linejoin="round"/>
<path d="M513.859 119.58V136.141C513.859 137.552 512.703 138.686 511.293 138.686C509.882 138.686 508.727 137.552 508.727 136.141V119.58C508.727 118.169 509.882 117.036 511.293 117.036C512.703 117.036 513.859 118.169 513.859 119.58ZM513.628 146.273C512.402 145.07 512.402 142.317 515.153 142.317C517.904 142.317 518.829 144.445 526.782 144.445C534.734 144.445 540.56 140.814 541.785 143.543C543.011 146.273 536.584 151.431 526.782 151.153C517.003 150.829 514.784 147.475 513.628 146.273ZM544.536 119.58V136.141C544.536 137.552 543.381 138.686 541.97 138.686C540.56 138.686 539.404 137.552 539.404 136.141V119.58C539.404 118.169 540.56 117.036 541.97 117.036C543.381 117.036 544.536 118.169 544.536 119.58Z" stroke="#2C2C2C" stroke-width="0.75" stroke-linejoin="round"/>
<path d="M572.558 81.7625C567.726 80.2359 561.484 81.1611 555.797 81.1611C550.11 81.9706 548.7 85.1164 548.7 87.8457C548.7 90.5751 548.399 101.493 548.7 104.245C548.977 106.974 550.688 108.802 555.219 109.704C559.75 110.606 571.402 110.606 576.511 107.275C581.62 103.921 582.545 99.6884 582.221 93.3045C581.898 86.9205 577.366 83.2891 572.535 81.7625H572.558Z" stroke="#2C2C2C" stroke-width="0.75" stroke-linejoin="round"/>
<path d="M555.148 81.9705H571.863C573.273 81.9705 574.429 80.8372 574.429 79.4262C574.429 78.0153 573.273 76.905 571.863 76.905H555.148C553.738 76.905 552.582 78.0384 552.582 79.4262C552.582 80.814 553.738 81.9705 555.148 81.9705ZM582.058 81.7624C580.832 80.5365 578.081 80.5365 578.081 83.289C578.081 86.0415 580.231 86.9204 580.231 94.831C580.231 102.742 576.555 108.478 579.307 109.704C582.058 110.93 587.259 104.546 586.982 94.831C586.658 85.1163 583.306 82.942 582.081 81.7855L582.058 81.7624ZM555.148 112.41H571.863C573.273 112.41 574.429 111.277 574.429 109.866C574.429 108.455 573.273 107.321 571.863 107.321H555.148C553.738 107.321 552.582 108.455 552.582 109.866C552.582 111.277 553.738 112.41 555.148 112.41Z" stroke="#2C2C2C" stroke-width="0.75" stroke-linejoin="round"/>
<path d="M483.461 81.7625C488.292 80.2359 494.534 81.1611 500.221 81.1611C505.908 81.9706 507.319 85.1164 507.319 87.8457C507.319 90.5751 507.596 101.493 507.319 104.245C507.041 106.974 505.33 108.802 500.799 109.704C496.245 110.606 484.617 110.606 479.484 107.275C474.375 103.921 473.474 99.6884 473.774 93.3045C474.098 86.9205 478.629 83.2891 483.461 81.7625Z" stroke="#2C2C2C" stroke-width="0.75" stroke-linejoin="round"/>
<path d="M500.844 81.9705H484.13C482.72 81.9705 481.564 80.8372 481.564 79.4262C481.564 78.0153 482.72 76.905 484.13 76.905H500.844C502.254 76.905 503.41 78.0384 503.41 79.4262C503.41 80.814 502.254 81.9705 500.844 81.9705ZM473.935 81.7624C475.16 80.5365 477.911 80.5365 477.911 83.289C477.911 86.0415 475.761 86.9204 475.761 94.831C475.761 102.742 479.437 108.478 476.686 109.704C473.935 110.93 468.733 104.546 469.011 94.831C469.334 85.1163 472.71 82.942 473.935 81.7855V81.7624ZM500.844 112.41H484.13C482.72 112.41 481.564 111.277 481.564 109.866C481.564 108.455 482.72 107.321 484.13 107.321H500.844C502.254 107.321 503.41 108.455 503.41 109.866C503.41 111.277 502.254 112.41 500.844 112.41Z" stroke="#2C2C2C" stroke-width="0.75" stroke-linejoin="round"/>
<path d="M565.394 57H491V129.282H565.394V57Z" fill="#CACACA"/>
<path d="M757.631 469.328C756.105 474.116 757.007 480.315 757.007 485.936C757.839 491.557 760.983 492.967 763.734 492.967C766.485 492.967 777.512 493.245 780.263 492.967C783.015 492.69 784.841 491.001 785.766 486.491C786.69 481.981 786.69 470.439 783.315 465.373C779.963 460.308 775.663 459.382 769.236 459.706C762.809 460.03 759.134 464.517 757.608 469.305L757.631 469.328Z" stroke="#2C2C2C" stroke-width="0.75" stroke-linejoin="round"/>
<path d="M757.859 486.584V470.022C757.859 468.611 756.703 467.478 755.293 467.478C753.882 467.478 752.727 468.611 752.727 470.022V486.584C752.727 487.971 753.882 489.128 755.293 489.128C756.703 489.128 757.859 487.994 757.859 486.584ZM757.628 459.891C756.402 461.117 756.402 463.847 759.153 463.847C761.904 463.847 762.829 461.719 770.782 461.719C778.734 461.719 784.56 465.35 785.785 462.621C787.011 459.891 780.584 454.733 770.782 455.011C761.003 455.358 758.784 458.665 757.628 459.891ZM788.536 486.584V470.022C788.536 468.611 787.381 467.478 785.97 467.478C784.56 467.478 783.404 468.611 783.404 470.022V486.584C783.404 487.971 784.56 489.128 785.97 489.128C787.381 489.128 788.536 487.994 788.536 486.584Z" stroke="#2C2C2C" stroke-width="0.75" stroke-linejoin="round"/>
<path d="M757.631 555.835C756.105 551.047 757.007 544.849 757.007 539.228C757.839 533.584 760.983 532.173 763.734 532.173C766.485 532.173 777.512 531.896 780.263 532.173C783.015 532.474 784.841 534.162 785.766 538.65C786.69 543.16 786.69 554.702 783.315 559.768C779.963 564.833 775.663 565.735 769.236 565.434C762.809 565.134 759.134 560.623 757.608 555.835H757.631Z" stroke="#2C2C2C" stroke-width="0.75" stroke-linejoin="round"/>
<path d="M757.859 538.58V555.141C757.859 556.552 756.703 557.686 755.293 557.686C753.882 557.686 752.727 556.552 752.727 555.141V538.58C752.727 537.169 753.882 536.036 755.293 536.036C756.703 536.036 757.859 537.169 757.859 538.58ZM757.628 565.273C756.402 564.07 756.402 561.317 759.153 561.317C761.904 561.317 762.829 563.445 770.782 563.445C778.734 563.445 784.56 559.814 785.785 562.543C787.011 565.273 780.584 570.431 770.782 570.153C761.003 569.829 758.784 566.475 757.628 565.273ZM788.536 538.58V555.141C788.536 556.552 787.381 557.686 785.97 557.686C784.56 557.686 783.404 556.552 783.404 555.141V538.58C783.404 537.169 784.56 536.036 785.97 536.036C787.381 536.036 788.536 537.169 788.536 538.58Z" stroke="#2C2C2C" stroke-width="0.75" stroke-linejoin="round"/>
<path d="M816.558 500.762C811.726 499.236 805.484 500.161 799.797 500.161C794.11 500.971 792.7 504.116 792.7 506.846C792.7 509.575 792.399 520.493 792.7 523.245C792.977 525.974 794.688 527.802 799.219 528.704C803.75 529.606 815.402 529.606 820.511 526.275C825.62 522.921 826.545 518.688 826.221 512.304C825.898 505.921 821.366 502.289 816.535 500.762H816.558Z" stroke="#2C2C2C" stroke-width="0.75" stroke-linejoin="round"/>
<path d="M799.148 500.971H815.863C817.273 500.971 818.429 499.837 818.429 498.426C818.429 497.015 817.273 495.905 815.863 495.905H799.148C797.738 495.905 796.582 497.038 796.582 498.426C796.582 499.814 797.738 500.971 799.148 500.971ZM826.058 500.762C824.832 499.536 822.081 499.536 822.081 502.289C822.081 505.041 824.231 505.92 824.231 513.831C824.231 521.742 820.555 527.478 823.307 528.704C826.058 529.93 831.259 523.546 830.982 513.831C830.658 504.116 827.306 501.942 826.081 500.786L826.058 500.762ZM799.148 531.41H815.863C817.273 531.41 818.429 530.277 818.429 528.866C818.429 527.455 817.273 526.321 815.863 526.321H799.148C797.738 526.321 796.582 527.455 796.582 528.866C796.582 530.277 797.738 531.41 799.148 531.41Z" stroke="#2C2C2C" stroke-width="0.75" stroke-linejoin="round"/>
<path d="M727.461 500.762C732.292 499.236 738.534 500.161 744.221 500.161C749.908 500.971 751.319 504.116 751.319 506.846C751.319 509.575 751.596 520.493 751.319 523.245C751.041 525.974 749.33 527.802 744.799 528.704C740.245 529.606 728.617 529.606 723.484 526.275C718.375 522.921 717.474 518.688 717.774 512.304C718.098 505.921 722.629 502.289 727.461 500.762Z" stroke="#2C2C2C" stroke-width="0.75" stroke-linejoin="round"/>
<path d="M744.844 500.971H728.13C726.72 500.971 725.564 499.837 725.564 498.426C725.564 497.015 726.72 495.905 728.13 495.905H744.844C746.254 495.905 747.41 497.038 747.41 498.426C747.41 499.814 746.254 500.971 744.844 500.971ZM717.935 500.762C719.16 499.536 721.911 499.536 721.911 502.289C721.911 505.041 719.761 505.92 719.761 513.831C719.761 521.742 723.437 527.478 720.686 528.704C717.935 529.93 712.733 523.546 713.011 513.831C713.334 504.116 716.71 501.942 717.935 500.786V500.762ZM744.844 531.41H728.13C726.72 531.41 725.564 530.277 725.564 528.866C725.564 527.455 726.72 526.321 728.13 526.321H744.844C746.254 526.321 747.41 527.455 747.41 528.866C747.41 530.277 746.254 531.41 744.844 531.41Z" stroke="#2C2C2C" stroke-width="0.75" stroke-linejoin="round"/>
<path d="M633.972 528.857C629.141 527.331 622.899 528.256 617.212 528.256C611.525 529.066 610.115 532.211 610.115 534.941C610.115 537.67 609.837 548.588 610.115 551.34C610.392 554.069 612.103 555.897 616.634 556.799C621.188 557.701 632.817 557.701 637.949 554.37C643.058 551.016 643.959 546.783 643.659 540.399C643.335 534.015 638.804 530.384 633.972 528.857Z" stroke="#2C2C2C" stroke-width="0.75" stroke-linejoin="round"/>
<path d="M616.589 529.066H633.303C634.713 529.066 635.869 527.932 635.869 526.521C635.869 525.11 634.713 524 633.303 524H616.589C615.179 524 614.023 525.133 614.023 526.521C614.023 527.909 615.179 529.066 616.589 529.066ZM643.498 528.857C642.273 527.631 639.522 527.631 639.522 530.384C639.522 533.136 641.672 534.015 641.672 541.926C641.672 549.836 637.996 555.573 640.747 556.799C643.498 558.025 648.7 551.641 648.422 541.926C648.099 532.211 644.724 530.037 643.498 528.88V528.857ZM616.589 559.505H633.303C634.713 559.505 635.869 558.372 635.869 556.961C635.869 555.55 634.713 554.416 633.303 554.416H616.589C615.179 554.416 614.023 555.55 614.023 556.961C614.023 558.372 615.179 559.505 616.589 559.505Z" stroke="#2C2C2C" stroke-width="0.75" stroke-linejoin="round"/>
<path d="M633.972 589.857C629.14 588.331 622.898 589.256 617.211 589.256C611.524 590.066 610.114 593.211 610.114 595.941C610.114 598.67 609.837 609.588 610.114 612.34C610.392 615.069 612.102 616.897 616.633 617.799C621.188 618.701 632.816 618.701 637.948 615.37C643.057 612.016 643.959 607.783 643.658 601.399C643.335 595.015 638.804 591.384 633.972 589.857Z" stroke="#2C2C2C" stroke-width="0.75" stroke-linejoin="round"/>
<path d="M616.588 590.066H633.303C634.713 590.066 635.869 588.932 635.869 587.521C635.869 586.11 634.713 585 633.303 585H616.588C615.178 585 614.022 586.133 614.022 587.521C614.022 588.909 615.178 590.066 616.588 590.066ZM643.498 589.857C642.273 588.631 639.521 588.631 639.521 591.384C639.521 594.136 641.671 595.015 641.671 602.926C641.671 610.836 637.996 616.573 640.747 617.799C643.498 619.025 648.699 612.641 648.422 602.926C648.098 593.211 644.723 591.037 643.498 589.88V589.857ZM616.588 620.505H633.303C634.713 620.505 635.869 619.372 635.869 617.961C635.869 616.55 634.713 615.416 633.303 615.416H616.588C615.178 615.416 614.022 616.55 614.022 617.961C614.022 619.372 615.178 620.505 616.588 620.505Z" stroke="#2C2C2C" stroke-width="0.75" stroke-linejoin="round"/>
<path d="M633.971 650.857C629.14 649.331 622.898 650.256 617.211 650.256C611.524 651.066 610.114 654.211 610.114 656.941C610.114 659.67 609.836 670.588 610.114 673.34C610.391 676.069 612.102 677.897 616.633 678.799C621.187 679.701 632.816 679.701 637.948 676.37C643.057 673.016 643.958 668.783 643.658 662.399C643.334 656.015 638.803 652.384 633.971 650.857Z" stroke="#2C2C2C" stroke-width="0.75" stroke-linejoin="round"/>
<path d="M616.588 651.066H633.302C634.712 651.066 635.868 649.932 635.868 648.521C635.868 647.11 634.712 646 633.302 646H616.588C615.178 646 614.022 647.133 614.022 648.521C614.022 649.909 615.178 651.066 616.588 651.066ZM643.497 650.857C642.272 649.631 639.521 649.631 639.521 652.384C639.521 655.136 641.671 656.015 641.671 663.926C641.671 671.836 637.995 677.573 640.746 678.799C643.497 680.025 648.699 673.641 648.421 663.926C648.098 654.211 644.723 652.037 643.497 650.88V650.857ZM616.588 681.505H633.302C634.712 681.505 635.868 680.372 635.868 678.961C635.868 677.55 634.712 676.416 633.302 676.416H616.588C615.178 676.416 614.022 677.55 614.022 678.961C614.022 680.372 615.178 681.505 616.588 681.505Z" stroke="#2C2C2C" stroke-width="0.75" stroke-linejoin="round"/>
<path d="M809.394 476H735V548.282H809.394V476Z" fill="#CACACA"/>
<path d="M255.631 469.328C254.105 474.116 255.007 480.315 255.007 485.936C255.839 491.557 258.983 492.967 261.734 492.967C264.485 492.967 275.512 493.245 278.263 492.967C281.015 492.69 282.841 491.001 283.766 486.491C284.69 481.981 284.69 470.439 281.315 465.373C277.963 460.308 273.663 459.382 267.236 459.706C260.809 460.03 257.134 464.517 255.608 469.305L255.631 469.328Z" stroke="#2C2C2C" stroke-width="0.75" stroke-linejoin="round"/>
<path d="M255.859 486.584V470.022C255.859 468.611 254.703 467.478 253.293 467.478C251.882 467.478 250.727 468.611 250.727 470.022V486.584C250.727 487.971 251.882 489.128 253.293 489.128C254.703 489.128 255.859 487.994 255.859 486.584ZM255.628 459.891C254.402 461.117 254.402 463.847 257.153 463.847C259.904 463.847 260.829 461.719 268.782 461.719C276.734 461.719 282.56 465.35 283.785 462.621C285.011 459.891 278.584 454.733 268.782 455.011C259.003 455.358 256.784 458.665 255.628 459.891ZM286.536 486.584V470.022C286.536 468.611 285.381 467.478 283.97 467.478C282.56 467.478 281.404 468.611 281.404 470.022V486.584C281.404 487.971 282.56 489.128 283.97 489.128C285.381 489.128 286.536 487.994 286.536 486.584Z" stroke="#2C2C2C" stroke-width="0.75" stroke-linejoin="round"/>
<path d="M255.631 555.835C254.105 551.047 255.007 544.849 255.007 539.228C255.839 533.584 258.983 532.173 261.734 532.173C264.485 532.173 275.512 531.896 278.263 532.173C281.015 532.474 282.841 534.162 283.766 538.65C284.69 543.16 284.69 554.702 281.315 559.768C277.963 564.833 273.663 565.735 267.236 565.434C260.809 565.134 257.134 560.623 255.608 555.835H255.631Z" stroke="#2C2C2C" stroke-width="0.75" stroke-linejoin="round"/>
<path d="M255.859 538.58V555.141C255.859 556.552 254.703 557.686 253.293 557.686C251.882 557.686 250.727 556.552 250.727 555.141V538.58C250.727 537.169 251.882 536.036 253.293 536.036C254.703 536.036 255.859 537.169 255.859 538.58ZM255.628 565.273C254.402 564.07 254.402 561.317 257.153 561.317C259.904 561.317 260.829 563.445 268.782 563.445C276.734 563.445 282.56 559.814 283.785 562.543C285.011 565.273 278.584 570.431 268.782 570.153C259.003 569.829 256.784 566.475 255.628 565.273ZM286.536 538.58V555.141C286.536 556.552 285.381 557.686 283.97 557.686C282.56 557.686 281.404 556.552 281.404 555.141V538.58C281.404 537.169 282.56 536.036 283.97 536.036C285.381 536.036 286.536 537.169 286.536 538.58Z" stroke="#2C2C2C" stroke-width="0.75" stroke-linejoin="round"/>
<path d="M314.558 500.762C309.726 499.236 303.484 500.161 297.797 500.161C292.11 500.971 290.7 504.116 290.7 506.846C290.7 509.575 290.399 520.493 290.7 523.245C290.977 525.974 292.688 527.802 297.219 528.704C301.75 529.606 313.402 529.606 318.511 526.275C323.62 522.921 324.545 518.688 324.221 512.304C323.898 505.921 319.366 502.289 314.535 500.762H314.558Z" stroke="#2C2C2C" stroke-width="0.75" stroke-linejoin="round"/>
<path d="M297.148 500.971H313.863C315.273 500.971 316.429 499.837 316.429 498.426C316.429 497.015 315.273 495.905 313.863 495.905H297.148C295.738 495.905 294.582 497.038 294.582 498.426C294.582 499.814 295.738 500.971 297.148 500.971ZM324.058 500.762C322.832 499.536 320.081 499.536 320.081 502.289C320.081 505.041 322.231 505.92 322.231 513.831C322.231 521.742 318.555 527.478 321.307 528.704C324.058 529.93 329.259 523.546 328.982 513.831C328.658 504.116 325.306 501.942 324.081 500.786L324.058 500.762ZM297.148 531.41H313.863C315.273 531.41 316.429 530.277 316.429 528.866C316.429 527.455 315.273 526.321 313.863 526.321H297.148C295.738 526.321 294.582 527.455 294.582 528.866C294.582 530.277 295.738 531.41 297.148 531.41Z" stroke="#2C2C2C" stroke-width="0.75" stroke-linejoin="round"/>
<path d="M225.461 500.762C230.292 499.236 236.534 500.161 242.221 500.161C247.908 500.971 249.319 504.116 249.319 506.846C249.319 509.575 249.596 520.493 249.319 523.245C249.041 525.974 247.33 527.802 242.799 528.704C238.245 529.606 226.617 529.606 221.484 526.275C216.375 522.921 215.474 518.688 215.774 512.304C216.098 505.921 220.629 502.289 225.461 500.762Z" stroke="#2C2C2C" stroke-width="0.75" stroke-linejoin="round"/>
<path d="M242.844 500.971H226.13C224.72 500.971 223.564 499.837 223.564 498.426C223.564 497.015 224.72 495.905 226.13 495.905H242.844C244.254 495.905 245.41 497.038 245.41 498.426C245.41 499.814 244.254 500.971 242.844 500.971ZM215.935 500.762C217.16 499.536 219.911 499.536 219.911 502.289C219.911 505.041 217.761 505.92 217.761 513.831C217.761 521.742 221.437 527.478 218.686 528.704C215.935 529.93 210.733 523.546 211.011 513.831C211.334 504.116 214.71 501.942 215.935 500.786V500.762ZM242.844 531.41H226.13C224.72 531.41 223.564 530.277 223.564 528.866C223.564 527.455 224.72 526.321 226.13 526.321H242.844C244.254 526.321 245.41 527.455 245.41 528.866C245.41 530.277 244.254 531.41 242.844 531.41Z" stroke="#2C2C2C" stroke-width="0.75" stroke-linejoin="round"/>
<path d="M131.972 528.857C127.141 527.331 120.899 528.256 115.212 528.256C109.525 529.066 108.115 532.211 108.115 534.941C108.115 537.67 107.837 548.588 108.115 551.34C108.392 554.069 110.103 555.897 114.634 556.799C119.188 557.701 130.817 557.701 135.949 554.37C141.058 551.016 141.959 546.783 141.659 540.399C141.335 534.015 136.804 530.384 131.972 528.857Z" stroke="#2C2C2C" stroke-width="0.75" stroke-linejoin="round"/>
<path d="M114.589 529.066H131.303C132.713 529.066 133.869 527.932 133.869 526.521C133.869 525.11 132.713 524 131.303 524H114.589C113.179 524 112.023 525.133 112.023 526.521C112.023 527.909 113.179 529.066 114.589 529.066ZM141.498 528.857C140.273 527.631 137.522 527.631 137.522 530.384C137.522 533.136 139.672 534.015 139.672 541.926C139.672 549.836 135.996 555.573 138.747 556.799C141.498 558.025 146.7 551.641 146.422 541.926C146.099 532.211 142.724 530.037 141.498 528.88V528.857ZM114.589 559.505H131.303C132.713 559.505 133.869 558.372 133.869 556.961C133.869 555.55 132.713 554.416 131.303 554.416H114.589C113.179 554.416 112.023 555.55 112.023 556.961C112.023 558.372 113.179 559.505 114.589 559.505Z" stroke="#2C2C2C" stroke-width="0.75" stroke-linejoin="round"/>
<path d="M131.972 589.857C127.14 588.331 120.898 589.256 115.211 589.256C109.524 590.066 108.114 593.211 108.114 595.941C108.114 598.67 107.837 609.588 108.114 612.34C108.392 615.069 110.102 616.897 114.633 617.799C119.188 618.701 130.816 618.701 135.948 615.37C141.057 612.016 141.959 607.783 141.658 601.399C141.335 595.015 136.804 591.384 131.972 589.857Z" stroke="#2C2C2C" stroke-width="0.75" stroke-linejoin="round"/>
<path d="M114.588 590.066H131.303C132.713 590.066 133.869 588.932 133.869 587.521C133.869 586.11 132.713 585 131.303 585H114.588C113.178 585 112.022 586.133 112.022 587.521C112.022 588.909 113.178 590.066 114.588 590.066ZM141.498 589.857C140.273 588.631 137.521 588.631 137.521 591.384C137.521 594.136 139.671 595.015 139.671 602.926C139.671 610.836 135.996 616.573 138.747 617.799C141.498 619.025 146.699 612.641 146.422 602.926C146.098 593.211 142.723 591.037 141.498 589.88V589.857ZM114.588 620.505H131.303C132.713 620.505 133.869 619.372 133.869 617.961C133.869 616.55 132.713 615.416 131.303 615.416H114.588C113.178 615.416 112.022 616.55 112.022 617.961C112.022 619.372 113.178 620.505 114.588 620.505Z" stroke="#2C2C2C" stroke-width="0.75" stroke-linejoin="round"/>
<path d="M131.971 650.857C127.14 649.331 120.898 650.256 115.211 650.256C109.524 651.066 108.114 654.211 108.114 656.941C108.114 659.67 107.836 670.588 108.114 673.34C108.391 676.069 110.102 677.897 114.633 678.799C119.187 679.701 130.816 679.701 135.948 676.37C141.057 673.016 141.958 668.783 141.658 662.399C141.334 656.015 136.803 652.384 131.971 650.857Z" stroke="#2C2C2C" stroke-width="0.75" stroke-linejoin="round"/>
<path d="M114.588 651.066H131.302C132.712 651.066 133.868 649.932 133.868 648.521C133.868 647.11 132.712 646 131.302 646H114.588C113.178 646 112.022 647.133 112.022 648.521C112.022 649.909 113.178 651.066 114.588 651.066ZM141.497 650.857C140.272 649.631 137.521 649.631 137.521 652.384C137.521 655.136 139.671 656.015 139.671 663.926C139.671 671.836 135.995 677.573 138.746 678.799C141.497 680.025 146.699 673.641 146.421 663.926C146.098 654.211 142.723 652.037 141.497 650.88V650.857ZM114.588 681.505H131.302C132.712 681.505 133.868 680.372 133.868 678.961C133.868 677.55 132.712 676.416 131.302 676.416H114.588C113.178 676.416 112.022 677.55 112.022 678.961C112.022 680.372 113.178 681.505 114.588 681.505Z" stroke="#2C2C2C" stroke-width="0.75" stroke-linejoin="round"/>
<path d="M307.394 476H233V548.282H307.394V476Z" fill="#CACACA"/>
<path d="M757.631 626.328C756.105 631.116 757.007 637.315 757.007 642.936C757.839 648.557 760.983 649.967 763.734 649.967C766.485 649.967 777.512 650.245 780.263 649.967C783.015 649.69 784.841 648.001 785.766 643.491C786.69 638.981 786.69 627.439 783.315 622.373C779.963 617.308 775.663 616.382 769.236 616.706C762.809 617.03 759.134 621.517 757.608 626.305L757.631 626.328Z" stroke="#2C2C2C" stroke-width="0.75" stroke-linejoin="round"/>
<path d="M757.859 643.584V627.022C757.859 625.611 756.703 624.478 755.293 624.478C753.882 624.478 752.727 625.611 752.727 627.022V643.584C752.727 644.971 753.882 646.128 755.293 646.128C756.703 646.128 757.859 644.994 757.859 643.584ZM757.628 616.891C756.402 618.117 756.402 620.847 759.153 620.847C761.904 620.847 762.829 618.719 770.782 618.719C778.734 618.719 784.56 622.35 785.785 619.621C787.011 616.891 780.584 611.733 770.782 612.011C761.003 612.358 758.784 615.665 757.628 616.891ZM788.536 643.584V627.022C788.536 625.611 787.381 624.478 785.97 624.478C784.56 624.478 783.404 625.611 783.404 627.022V643.584C783.404 644.971 784.56 646.128 785.97 646.128C787.381 646.128 788.536 644.994 788.536 643.584Z" stroke="#2C2C2C" stroke-width="0.75" stroke-linejoin="round"/>
<path d="M757.631 712.835C756.105 708.047 757.007 701.849 757.007 696.228C757.839 690.584 760.983 689.173 763.734 689.173C766.485 689.173 777.512 688.896 780.263 689.173C783.015 689.474 784.841 691.162 785.766 695.65C786.69 700.16 786.69 711.702 783.315 716.768C779.963 721.833 775.663 722.735 769.236 722.434C762.809 722.134 759.134 717.623 757.608 712.835H757.631Z" stroke="#2C2C2C" stroke-width="0.75" stroke-linejoin="round"/>
<path d="M757.859 695.58V712.141C757.859 713.552 756.703 714.686 755.293 714.686C753.882 714.686 752.727 713.552 752.727 712.141V695.58C752.727 694.169 753.882 693.036 755.293 693.036C756.703 693.036 757.859 694.169 757.859 695.58ZM757.628 722.273C756.402 721.07 756.402 718.317 759.153 718.317C761.904 718.317 762.829 720.445 770.782 720.445C778.734 720.445 784.56 716.814 785.785 719.543C787.011 722.273 780.584 727.431 770.782 727.153C761.003 726.829 758.784 723.475 757.628 722.273ZM788.536 695.58V712.141C788.536 713.552 787.381 714.686 785.97 714.686C784.56 714.686 783.404 713.552 783.404 712.141V695.58C783.404 694.169 784.56 693.036 785.97 693.036C787.381 693.036 788.536 694.169 788.536 695.58Z" stroke="#2C2C2C" stroke-width="0.75" stroke-linejoin="round"/>
<path d="M816.558 657.762C811.726 656.236 805.484 657.161 799.797 657.161C794.11 657.971 792.7 661.116 792.7 663.846C792.7 666.575 792.399 677.493 792.7 680.245C792.977 682.974 794.688 684.802 799.219 685.704C803.75 686.606 815.402 686.606 820.511 683.275C825.62 679.921 826.545 675.688 826.221 669.304C825.898 662.921 821.366 659.289 816.535 657.762H816.558Z" stroke="#2C2C2C" stroke-width="0.75" stroke-linejoin="round"/>
<path d="M799.148 657.971H815.863C817.273 657.971 818.429 656.837 818.429 655.426C818.429 654.015 817.273 652.905 815.863 652.905H799.148C797.738 652.905 796.582 654.038 796.582 655.426C796.582 656.814 797.738 657.971 799.148 657.971ZM826.058 657.762C824.832 656.536 822.081 656.536 822.081 659.289C822.081 662.041 824.231 662.92 824.231 670.831C824.231 678.742 820.555 684.478 823.307 685.704C826.058 686.93 831.259 680.546 830.982 670.831C830.658 661.116 827.306 658.942 826.081 657.786L826.058 657.762ZM799.148 688.41H815.863C817.273 688.41 818.429 687.277 818.429 685.866C818.429 684.455 817.273 683.321 815.863 683.321H799.148C797.738 683.321 796.582 684.455 796.582 685.866C796.582 687.277 797.738 688.41 799.148 688.41Z" stroke="#2C2C2C" stroke-width="0.75" stroke-linejoin="round"/>
<path d="M727.461 657.762C732.292 656.236 738.534 657.161 744.221 657.161C749.908 657.971 751.319 661.116 751.319 663.846C751.319 666.575 751.596 677.493 751.319 680.245C751.041 682.974 749.33 684.802 744.799 685.704C740.245 686.606 728.617 686.606 723.484 683.275C718.375 679.921 717.474 675.688 717.774 669.304C718.098 662.921 722.629 659.289 727.461 657.762Z" stroke="#2C2C2C" stroke-width="0.75" stroke-linejoin="round"/>
<path d="M744.844 657.971H728.13C726.72 657.971 725.564 656.837 725.564 655.426C725.564 654.015 726.72 652.905 728.13 652.905H744.844C746.254 652.905 747.41 654.038 747.41 655.426C747.41 656.814 746.254 657.971 744.844 657.971ZM717.935 657.762C719.16 656.536 721.911 656.536 721.911 659.289C721.911 662.041 719.761 662.92 719.761 670.831C719.761 678.742 723.437 684.478 720.686 685.704C717.935 686.93 712.733 680.546 713.011 670.831C713.334 661.116 716.71 658.942 717.935 657.786V657.762ZM744.844 688.41H728.13C726.72 688.41 725.564 687.277 725.564 685.866C725.564 684.455 726.72 683.321 728.13 683.321H744.844C746.254 683.321 747.41 684.455 747.41 685.866C747.41 687.277 746.254 688.41 744.844 688.41Z" stroke="#2C2C2C" stroke-width="0.75" stroke-linejoin="round"/>
<path d="M809.394 633H735V705.282H809.394V633Z" fill="#CACACA"/>
<path d="M255.631 626.328C254.105 631.116 255.007 637.315 255.007 642.936C255.839 648.557 258.983 649.967 261.734 649.967C264.485 649.967 275.512 650.245 278.263 649.967C281.015 649.69 282.841 648.001 283.766 643.491C284.69 638.981 284.69 627.439 281.315 622.373C277.963 617.308 273.663 616.382 267.236 616.706C260.809 617.03 257.134 621.517 255.608 626.305L255.631 626.328Z" stroke="#2C2C2C" stroke-width="0.75" stroke-linejoin="round"/>
<path d="M255.859 643.584V627.022C255.859 625.611 254.703 624.478 253.293 624.478C251.882 624.478 250.727 625.611 250.727 627.022V643.584C250.727 644.971 251.882 646.128 253.293 646.128C254.703 646.128 255.859 644.994 255.859 643.584ZM255.628 616.891C254.402 618.117 254.402 620.847 257.153 620.847C259.904 620.847 260.829 618.719 268.782 618.719C276.734 618.719 282.56 622.35 283.785 619.621C285.011 616.891 278.584 611.733 268.782 612.011C259.003 612.358 256.784 615.665 255.628 616.891ZM286.536 643.584V627.022C286.536 625.611 285.381 624.478 283.97 624.478C282.56 624.478 281.404 625.611 281.404 627.022V643.584C281.404 644.971 282.56 646.128 283.97 646.128C285.381 646.128 286.536 644.994 286.536 643.584Z" stroke="#2C2C2C" stroke-width="0.75" stroke-linejoin="round"/>
<path d="M255.631 712.835C254.105 708.047 255.007 701.849 255.007 696.228C255.839 690.584 258.983 689.173 261.734 689.173C264.485 689.173 275.512 688.896 278.263 689.173C281.015 689.474 282.841 691.162 283.766 695.65C284.69 700.16 284.69 711.702 281.315 716.768C277.963 721.833 273.663 722.735 267.236 722.434C260.809 722.134 257.134 717.623 255.608 712.835H255.631Z" stroke="#2C2C2C" stroke-width="0.75" stroke-linejoin="round"/>
<path d="M255.859 695.58V712.141C255.859 713.552 254.703 714.686 253.293 714.686C251.882 714.686 250.727 713.552 250.727 712.141V695.58C250.727 694.169 251.882 693.036 253.293 693.036C254.703 693.036 255.859 694.169 255.859 695.58ZM255.628 722.273C254.402 721.07 254.402 718.317 257.153 718.317C259.904 718.317 260.829 720.445 268.782 720.445C276.734 720.445 282.56 716.814 283.785 719.543C285.011 722.273 278.584 727.431 268.782 727.153C259.003 726.829 256.784 723.475 255.628 722.273ZM286.536 695.58V712.141C286.536 713.552 285.381 714.686 283.97 714.686C282.56 714.686 281.404 713.552 281.404 712.141V695.58C281.404 694.169 282.56 693.036 283.97 693.036C285.381 693.036 286.536 694.169 286.536 695.58Z" stroke="#2C2C2C" stroke-width="0.75" stroke-linejoin="round"/>
<path d="M314.558 657.762C309.726 656.236 303.484 657.161 297.797 657.161C292.11 657.971 290.7 661.116 290.7 663.846C290.7 666.575 290.399 677.493 290.7 680.245C290.977 682.974 292.688 684.802 297.219 685.704C301.75 686.606 313.402 686.606 318.511 683.275C323.62 679.921 324.545 675.688 324.221 669.304C323.898 662.921 319.366 659.289 314.535 657.762H314.558Z" stroke="#2C2C2C" stroke-width="0.75" stroke-linejoin="round"/>
<path d="M297.148 657.971H313.863C315.273 657.971 316.429 656.837 316.429 655.426C316.429 654.015 315.273 652.905 313.863 652.905H297.148C295.738 652.905 294.582 654.038 294.582 655.426C294.582 656.814 295.738 657.971 297.148 657.971ZM324.058 657.762C322.832 656.536 320.081 656.536 320.081 659.289C320.081 662.041 322.231 662.92 322.231 670.831C322.231 678.742 318.555 684.478 321.307 685.704C324.058 686.93 329.259 680.546 328.982 670.831C328.658 661.116 325.306 658.942 324.081 657.786L324.058 657.762ZM297.148 688.41H313.863C315.273 688.41 316.429 687.277 316.429 685.866C316.429 684.455 315.273 683.321 313.863 683.321H297.148C295.738 683.321 294.582 684.455 294.582 685.866C294.582 687.277 295.738 688.41 297.148 688.41Z" stroke="#2C2C2C" stroke-width="0.75" stroke-linejoin="round"/>
<path d="M225.461 657.762C230.292 656.236 236.534 657.161 242.221 657.161C247.908 657.971 249.319 661.116 249.319 663.846C249.319 666.575 249.596 677.493 249.319 680.245C249.041 682.974 247.33 684.802 242.799 685.704C238.245 686.606 226.617 686.606 221.484 683.275C216.375 679.921 215.474 675.688 215.774 669.304C216.098 662.921 220.629 659.289 225.461 657.762Z" stroke="#2C2C2C" stroke-width="0.75" stroke-linejoin="round"/>
<path d="M242.844 657.971H226.13C224.72 657.971 223.564 656.837 223.564 655.426C223.564 654.015 224.72 652.905 226.13 652.905H242.844C244.254 652.905 245.41 654.038 245.41 655.426C245.41 656.814 244.254 657.971 242.844 657.971ZM215.935 657.762C217.16 656.536 219.911 656.536 219.911 659.289C219.911 662.041 217.761 662.92 217.761 670.831C217.761 678.742 221.437 684.478 218.686 685.704C215.935 686.93 210.733 680.546 211.011 670.831C211.334 661.116 214.71 658.942 215.935 657.786V657.762ZM242.844 688.41H226.13C224.72 688.41 223.564 687.277 223.564 685.866C223.564 684.455 224.72 683.321 226.13 683.321H242.844C244.254 683.321 245.41 684.455 245.41 685.866C245.41 687.277 244.254 688.41 242.844 688.41Z" stroke="#2C2C2C" stroke-width="0.75" stroke-linejoin="round"/>
<path d="M307.394 633H233V705.282H307.394V633Z" fill="#CACACA"/>
<rect x="829.25" y="67.1125" width="33.007" height="5.94366" rx="0.75" transform="rotate(90 829.25 67.1125)" stroke="black" stroke-width="0.5"/>
<mask id="path-61-inside-1_1893_2280" fill="white">
<path d="M823.055 69.4399L823.055 97.7921L807.301 97.7921C806.749 97.7921 806.301 97.3443 806.301 96.7921L806.301 70.4399C806.301 69.8877 806.749 69.4399 807.301 69.4399L823.055 69.4399Z"/>
</mask>
<path d="M823.055 69.4399L823.055 97.7921L823.055 69.4399ZM806.301 97.7921L806.301 69.4399L806.301 97.7921ZM806.301 70.4399C806.301 69.6115 806.973 68.9399 807.801 68.9399L823.055 68.9399L823.055 69.9399L807.301 69.9399C806.749 69.9399 806.301 70.1638 806.301 70.4399ZM823.055 98.2921L807.801 98.2921C806.973 98.2921 806.301 97.6205 806.301 96.7921C806.301 97.0682 806.749 97.2921 807.301 97.2921L823.055 97.2921L823.055 98.2921Z" fill="black" mask="url(#path-61-inside-1_1893_2280)"/>
<rect x="769.824" y="34.25" width="33.007" height="5.94366" rx="0.75" stroke="black" stroke-width="0.5"/>
<mask id="path-64-inside-2_1893_2280" fill="white">
<path d="M772.152 40.4436H800.504V56.1971C800.504 56.7494 800.057 57.1971 799.504 57.1971H773.152C772.6 57.1971 772.152 56.7494 772.152 56.1971V40.4436Z"/>
</mask>
<path d="M772.152 40.4436H800.504H772.152ZM800.504 57.1971H772.152H800.504ZM773.152 57.1971C772.324 57.1971 771.652 56.5255 771.652 55.6971V40.4436H772.652V56.1971C772.652 56.7494 772.876 57.1971 773.152 57.1971ZM801.004 40.4436V55.6971C801.004 56.5255 800.333 57.1971 799.504 57.1971C799.781 57.1971 800.004 56.7494 800.004 56.1971V40.4436H801.004Z" fill="black" mask="url(#path-64-inside-2_1893_2280)"/>
<rect x="0.25" y="-0.25" width="33.007" height="5.94366" rx="0.75" transform="matrix(1 0 0 -1 769.574 414.965)" stroke="black" stroke-width="0.5"/>
<mask id="path-67-inside-3_1893_2280" fill="white">
<path d="M772.152 409.021H800.504V393.268C800.504 392.715 800.057 392.268 799.504 392.268H773.152C772.6 392.268 772.152 392.715 772.152 393.268V409.021Z"/>
</mask>
<path d="M772.152 409.021H800.504H772.152ZM800.504 392.268H772.152H800.504ZM773.152 392.268C772.324 392.268 771.652 392.939 771.652 393.768V409.021H772.652V393.268C772.652 392.715 772.876 392.268 773.152 392.268ZM801.004 409.021V393.768C801.004 392.939 800.333 392.268 799.504 392.268C799.781 392.268 800.004 392.715 800.004 393.268V409.021H801.004Z" fill="black" mask="url(#path-67-inside-3_1893_2280)"/>
<rect x="829.25" y="172.144" width="33.007" height="5.94366" rx="0.75" transform="rotate(90 829.25 172.144)" stroke="black" stroke-width="0.5"/>
<mask id="path-70-inside-4_1893_2280" fill="white">
<path d="M823.055 174.472L823.055 202.824L807.301 202.824C806.749 202.824 806.301 202.376 806.301 201.824L806.301 175.472C806.301 174.919 806.749 174.472 807.301 174.472L823.055 174.472Z"/>
</mask>
<path d="M823.055 174.472L823.055 202.824L823.055 174.472ZM806.301 202.824L806.301 174.472L806.301 202.824ZM806.301 175.472C806.301 174.643 806.973 173.972 807.801 173.972L823.055 173.972L823.055 174.972L807.301 174.972C806.749 174.972 806.301 175.196 806.301 175.472ZM823.055 203.324L807.801 203.324C806.973 203.324 806.301 202.652 806.301 201.824C806.301 202.1 806.749 202.324 807.301 202.324L823.055 202.324L823.055 203.324Z" fill="black" mask="url(#path-70-inside-4_1893_2280)"/>
<rect x="829.25" y="277.176" width="33.007" height="5.94366" rx="0.75" transform="rotate(90 829.25 277.176)" stroke="black" stroke-width="0.5"/>
<mask id="path-73-inside-5_1893_2280" fill="white">
<path d="M823.055 279.503L823.055 307.856L807.301 307.856C806.749 307.856 806.301 307.408 806.301 306.856L806.301 280.503C806.301 279.951 806.749 279.503 807.301 279.503L823.055 279.503Z"/>
</mask>
<path d="M823.055 279.503L823.055 307.856L823.055 279.503ZM806.301 307.856L806.301 279.503L806.301 307.856ZM806.301 280.503C806.301 279.675 806.973 279.003 807.801 279.003L823.055 279.003L823.055 280.003L807.301 280.003C806.749 280.003 806.301 280.227 806.301 280.503ZM823.055 308.356L807.801 308.356C806.973 308.356 806.301 307.684 806.301 306.856C806.301 307.132 806.749 307.356 807.301 307.356L823.055 307.356L823.055 308.356Z" fill="black" mask="url(#path-73-inside-5_1893_2280)"/>
<rect x="0.25" y="0.25" width="33.007" height="5.94366" rx="0.75" transform="matrix(-4.37114e-08 1 1 4.37114e-08 738 66.8625)" stroke="black" stroke-width="0.5"/>
<mask id="path-76-inside-6_1893_2280" fill="white">
<path d="M744.445 69.4399L744.445 97.7921L760.199 97.7921C760.751 97.7921 761.199 97.3443 761.199 96.7921L761.199 70.4399C761.199 69.8877 760.751 69.4399 760.199 69.4399L744.445 69.4399Z"/>
</mask>
<path d="M744.445 69.4399L744.445 97.7921L744.445 69.4399ZM761.199 97.7921L761.199 69.4399L761.199 97.7921ZM761.199 70.4399C761.199 69.6115 760.527 68.9399 759.699 68.9399L744.445 68.9399L744.445 69.9399L760.199 69.9399C760.751 69.9399 761.199 70.1638 761.199 70.4399ZM744.445 98.2921L759.699 98.2921C760.527 98.2921 761.199 97.6205 761.199 96.7921C761.199 97.0682 760.751 97.2921 760.199 97.2921L744.445 97.2921L744.445 98.2921Z" fill="black" mask="url(#path-76-inside-6_1893_2280)"/>
<rect x="0.25" y="0.25" width="33.007" height="5.94366" rx="0.75" transform="matrix(-4.37114e-08 1 1 4.37114e-08 738 175.76)" stroke="black" stroke-width="0.5"/>
<mask id="path-79-inside-7_1893_2280" fill="white">
<path d="M744.445 178.338L744.445 206.69L760.199 206.69C760.751 206.69 761.199 206.242 761.199 205.69L761.199 179.338C761.199 178.786 760.751 178.338 760.199 178.338L744.445 178.338Z"/>
</mask>
<path d="M744.445 178.338L744.445 206.69L744.445 178.338ZM761.199 206.69L761.199 178.338L761.199 206.69ZM761.199 179.338C761.199 178.509 760.527 177.838 759.699 177.838L744.445 177.838L744.445 178.838L760.199 178.838C760.751 178.838 761.199 179.062 761.199 179.338ZM744.445 207.19L759.699 207.19C760.527 207.19 761.199 206.518 761.199 205.69C761.199 205.966 760.751 206.19 760.199 206.19L744.445 206.19L744.445 207.19Z" fill="black" mask="url(#path-79-inside-7_1893_2280)"/>
<rect x="0.25" y="0.25" width="33.007" height="5.94366" rx="0.75" transform="matrix(-4.37114e-08 1 1 4.37114e-08 738 282.081)" stroke="black" stroke-width="0.5"/>
<mask id="path-82-inside-8_1893_2280" fill="white">
<path d="M744.445 284.658L744.445 313.011L760.199 313.011C760.751 313.011 761.199 312.563 761.199 312.011L761.199 285.658C761.199 285.106 760.751 284.658 760.199 284.658L744.445 284.658Z"/>
</mask>
<path d="M744.445 284.658L744.445 313.011L744.445 284.658ZM761.199 313.011L761.199 284.658L761.199 313.011ZM761.199 285.658C761.199 284.83 760.527 284.158 759.699 284.158L744.445 284.158L744.445 285.158L760.199 285.158C760.751 285.158 761.199 285.382 761.199 285.658ZM744.445 313.511L759.699 313.511C760.527 313.511 761.199 312.839 761.199 312.011C761.199 312.287 760.751 312.511 760.199 312.511L744.445 312.511L744.445 313.511Z" fill="black" mask="url(#path-82-inside-8_1893_2280)"/>
<rect x="829.25" y="103.197" width="33.007" height="5.94366" rx="0.75" transform="rotate(90 829.25 103.197)" stroke="black" stroke-width="0.5"/>
<mask id="path-85-inside-9_1893_2280" fill="white">
<path d="M823.055 105.525L823.055 133.877L807.301 133.877C806.749 133.877 806.301 133.429 806.301 132.877L806.301 106.525C806.301 105.972 806.749 105.525 807.301 105.525L823.055 105.525Z"/>
</mask>
<path d="M823.055 105.525L823.055 133.877L823.055 105.525ZM806.301 133.877L806.301 105.525L806.301 133.877ZM806.301 106.525C806.301 105.696 806.973 105.025 807.801 105.025L823.055 105.025L823.055 106.025L807.301 106.025C806.749 106.025 806.301 106.249 806.301 106.525ZM823.055 134.377L807.801 134.377C806.973 134.377 806.301 133.705 806.301 132.877C806.301 133.153 806.749 133.377 807.301 133.377L823.055 133.377L823.055 134.377Z" fill="black" mask="url(#path-85-inside-9_1893_2280)"/>
<rect x="829.25" y="208.229" width="33.007" height="5.94366" rx="0.75" transform="rotate(90 829.25 208.229)" stroke="black" stroke-width="0.5"/>
<mask id="path-88-inside-10_1893_2280" fill="white">
<path d="M823.055 210.556L823.055 238.909L807.301 238.909C806.749 238.909 806.301 238.461 806.301 237.909L806.301 211.556C806.301 211.004 806.749 210.556 807.301 210.556L823.055 210.556Z"/>
</mask>
<path d="M823.055 210.556L823.055 238.909L823.055 210.556ZM806.301 238.909L806.301 210.556L806.301 238.909ZM806.301 211.556C806.301 210.728 806.973 210.056 807.801 210.056L823.055 210.056L823.055 211.056L807.301 211.056C806.749 211.056 806.301 211.28 806.301 211.556ZM823.055 239.409L807.801 239.409C806.973 239.409 806.301 238.737 806.301 237.909C806.301 238.185 806.749 238.409 807.301 238.409L823.055 238.409L823.055 239.409Z" fill="black" mask="url(#path-88-inside-10_1893_2280)"/>
<rect x="829.25" y="313.26" width="33.007" height="5.94366" rx="0.75" transform="rotate(90 829.25 313.26)" stroke="black" stroke-width="0.5"/>
<mask id="path-91-inside-11_1893_2280" fill="white">
<path d="M823.055 315.588L823.055 343.94L807.301 343.94C806.749 343.94 806.301 343.492 806.301 342.94L806.301 316.588C806.301 316.036 806.749 315.588 807.301 315.588L823.055 315.588Z"/>
</mask>
<path d="M823.055 315.588L823.055 343.94L823.055 315.588ZM806.301 343.94L806.301 315.588L806.301 343.94ZM806.301 316.588C806.301 315.759 806.973 315.088 807.801 315.088L823.055 315.088L823.055 316.088L807.301 316.088C806.749 316.088 806.301 316.312 806.301 316.588ZM823.055 344.44L807.801 344.44C806.973 344.44 806.301 343.768 806.301 342.94C806.301 343.216 806.749 343.44 807.301 343.44L823.055 343.44L823.055 344.44Z" fill="black" mask="url(#path-91-inside-11_1893_2280)"/>
<rect x="0.25" y="0.25" width="33.007" height="5.94366" rx="0.75" transform="matrix(-4.37114e-08 1 1 4.37114e-08 738 104.236)" stroke="black" stroke-width="0.5"/>
<mask id="path-94-inside-12_1893_2280" fill="white">
<path d="M744.445 106.813L744.445 135.165L760.199 135.165C760.751 135.165 761.199 134.718 761.199 134.165L761.199 107.813C761.199 107.261 760.751 106.813 760.199 106.813L744.445 106.813Z"/>
</mask>
<path d="M744.445 106.813L744.445 135.165L744.445 106.813ZM761.199 135.165L761.199 106.813L761.199 135.165ZM761.199 107.813C761.199 106.985 760.527 106.313 759.699 106.313L744.445 106.313L744.445 107.313L760.199 107.313C760.751 107.313 761.199 107.537 761.199 107.813ZM744.445 135.665L759.699 135.665C760.527 135.665 761.199 134.994 761.199 134.165C761.199 134.441 760.751 134.665 760.199 134.665L744.445 134.665L744.445 135.665Z" fill="black" mask="url(#path-94-inside-12_1893_2280)"/>
<rect x="0.25" y="0.25" width="33.007" height="5.94366" rx="0.75" transform="matrix(-4.37114e-08 1 1 4.37114e-08 738 210.556)" stroke="black" stroke-width="0.5"/>
<mask id="path-97-inside-13_1893_2280" fill="white">
<path d="M744.445 213.134L744.445 241.486L760.199 241.486C760.751 241.486 761.199 241.038 761.199 240.486L761.199 214.134C761.199 213.582 760.751 213.134 760.199 213.134L744.445 213.134Z"/>
</mask>
<path d="M744.445 213.134L744.445 241.486L744.445 213.134ZM761.199 241.486L761.199 213.134L761.199 241.486ZM761.199 214.134C761.199 213.305 760.527 212.634 759.699 212.634L744.445 212.634L744.445 213.634L760.199 213.634C760.751 213.634 761.199 213.858 761.199 214.134ZM744.445 241.986L759.699 241.986C760.527 241.986 761.199 241.314 761.199 240.486C761.199 240.762 760.751 240.986 760.199 240.986L744.445 240.986L744.445 241.986Z" fill="black" mask="url(#path-97-inside-13_1893_2280)"/>
<rect x="0.25" y="0.25" width="33.007" height="5.94366" rx="0.75" transform="matrix(-4.37114e-08 1 1 4.37114e-08 738 318.166)" stroke="black" stroke-width="0.5"/>
<mask id="path-100-inside-14_1893_2280" fill="white">
<path d="M744.445 320.743L744.445 349.095L760.199 349.095C760.751 349.095 761.199 348.647 761.199 348.095L761.199 321.743C761.199 321.191 760.751 320.743 760.199 320.743L744.445 320.743Z"/>
</mask>
<path d="M744.445 320.743L744.445 349.095L744.445 320.743ZM761.199 349.095L761.199 320.743L761.199 349.095ZM761.199 321.743C761.199 320.914 760.527 320.243 759.699 320.243L744.445 320.243L744.445 321.243L760.199 321.243C760.751 321.243 761.199 321.467 761.199 321.743ZM744.445 349.595L759.699 349.595C760.527 349.595 761.199 348.923 761.199 348.095C761.199 348.371 760.751 348.595 760.199 348.595L744.445 348.595L744.445 349.595Z" fill="black" mask="url(#path-100-inside-14_1893_2280)"/>
<rect x="829.25" y="139.282" width="33.007" height="5.94366" rx="0.75" transform="rotate(90 829.25 139.282)" stroke="black" stroke-width="0.5"/>
<mask id="path-103-inside-15_1893_2280" fill="white">
<path d="M823.055 141.609L823.055 169.961L807.301 169.961C806.749 169.961 806.301 169.514 806.301 168.961L806.301 142.609C806.301 142.057 806.749 141.609 807.301 141.609L823.055 141.609Z"/>
</mask>
<path d="M823.055 141.609L823.055 169.961L823.055 141.609ZM806.301 169.961L806.301 141.609L806.301 169.961ZM806.301 142.609C806.301 141.781 806.973 141.109 807.801 141.109L823.055 141.109L823.055 142.109L807.301 142.109C806.749 142.109 806.301 142.333 806.301 142.609ZM823.055 170.461L807.801 170.461C806.973 170.461 806.301 169.79 806.301 168.961C806.301 169.237 806.749 169.461 807.301 169.461L823.055 169.461L823.055 170.461Z" fill="black" mask="url(#path-103-inside-15_1893_2280)"/>
<rect x="829.25" y="244.313" width="33.007" height="5.94366" rx="0.75" transform="rotate(90 829.25 244.313)" stroke="black" stroke-width="0.5"/>
<mask id="path-106-inside-16_1893_2280" fill="white">
<path d="M823.055 246.641L823.055 274.993L807.301 274.993C806.749 274.993 806.301 274.545 806.301 273.993L806.301 247.641C806.301 247.089 806.749 246.641 807.301 246.641L823.055 246.641Z"/>
</mask>
<path d="M823.055 246.641L823.055 274.993L823.055 246.641ZM806.301 274.993L806.301 246.641L806.301 274.993ZM806.301 247.641C806.301 246.812 806.973 246.141 807.801 246.141L823.055 246.141L823.055 247.141L807.301 247.141C806.749 247.141 806.301 247.365 806.301 247.641ZM823.055 275.493L807.801 275.493C806.973 275.493 806.301 274.821 806.301 273.993C806.301 274.269 806.749 274.493 807.301 274.493L823.055 274.493L823.055 275.493Z" fill="black" mask="url(#path-106-inside-16_1893_2280)"/>
<rect x="829.25" y="349.345" width="33.007" height="5.94366" rx="0.75" transform="rotate(90 829.25 349.345)" stroke="black" stroke-width="0.5"/>
<mask id="path-109-inside-17_1893_2280" fill="white">
<path d="M823.055 351.673L823.055 380.025L807.301 380.025C806.749 380.025 806.301 379.577 806.301 379.025L806.301 352.673C806.301 352.12 806.749 351.673 807.301 351.673L823.055 351.673Z"/>
</mask>
<path d="M823.055 351.673L823.055 380.025L823.055 351.673ZM806.301 380.025L806.301 351.673L806.301 380.025ZM806.301 352.673C806.301 351.844 806.973 351.173 807.801 351.173L823.055 351.173L823.055 352.173L807.301 352.173C806.749 352.173 806.301 352.396 806.301 352.673ZM823.055 380.525L807.801 380.525C806.973 380.525 806.301 379.853 806.301 379.025C806.301 379.301 806.749 379.525 807.301 379.525L823.055 379.525L823.055 380.525Z" fill="black" mask="url(#path-109-inside-17_1893_2280)"/>
<rect x="0.25" y="0.25" width="33.007" height="5.94366" rx="0.75" transform="matrix(-4.37114e-08 1 1 4.37114e-08 738 140.32)" stroke="black" stroke-width="0.5"/>
<mask id="path-112-inside-18_1893_2280" fill="white">
<path d="M744.445 142.898L744.445 171.25L760.199 171.25C760.751 171.25 761.199 170.802 761.199 170.25L761.199 143.898C761.199 143.345 760.751 142.898 760.199 142.898L744.445 142.898Z"/>
</mask>
<path d="M744.445 142.898L744.445 171.25L744.445 142.898ZM761.199 171.25L761.199 142.898L761.199 171.25ZM761.199 143.898C761.199 143.069 760.527 142.398 759.699 142.398L744.445 142.398L744.445 143.398L760.199 143.398C760.751 143.398 761.199 143.622 761.199 143.898ZM744.445 171.75L759.699 171.75C760.527 171.75 761.199 171.078 761.199 170.25C761.199 170.526 760.751 170.75 760.199 170.75L744.445 170.75L744.445 171.75Z" fill="black" mask="url(#path-112-inside-18_1893_2280)"/>
<rect x="0.25" y="0.25" width="33.007" height="5.94366" rx="0.75" transform="matrix(-4.37114e-08 1 1 4.37114e-08 738 246.641)" stroke="black" stroke-width="0.5"/>
<mask id="path-115-inside-19_1893_2280" fill="white">
<path d="M744.445 249.218L744.445 277.57L760.199 277.57C760.751 277.57 761.199 277.123 761.199 276.57L761.199 250.218C761.199 249.666 760.751 249.218 760.199 249.218L744.445 249.218Z"/>
</mask>
<path d="M744.445 249.218L744.445 277.57L744.445 249.218ZM761.199 277.57L761.199 249.218L761.199 277.57ZM761.199 250.218C761.199 249.39 760.527 248.718 759.699 248.718L744.445 248.718L744.445 249.718L760.199 249.718C760.751 249.718 761.199 249.942 761.199 250.218ZM744.445 278.07L759.699 278.07C760.527 278.07 761.199 277.399 761.199 276.57C761.199 276.847 760.751 277.07 760.199 277.07L744.445 277.07L744.445 278.07Z" fill="black" mask="url(#path-115-inside-19_1893_2280)"/>
<rect x="0.25" y="0.25" width="33.007" height="5.94366" rx="0.75" transform="matrix(-4.37114e-08 1 1 4.37114e-08 738 354.25)" stroke="black" stroke-width="0.5"/>
<mask id="path-118-inside-20_1893_2280" fill="white">
<path d="M744.445 356.827L744.445 385.18L760.199 385.18C760.751 385.18 761.199 384.732 761.199 384.18L761.199 357.827C761.199 357.275 760.751 356.827 760.199 356.827L744.445 356.827Z"/>
</mask>
<path d="M744.445 356.827L744.445 385.18L744.445 356.827ZM761.199 385.18L761.199 356.827L761.199 385.18ZM761.199 357.827C761.199 356.999 760.527 356.327 759.699 356.327L744.445 356.327L744.445 357.327L760.199 357.327C760.751 357.327 761.199 357.551 761.199 357.827ZM744.445 385.68L759.699 385.68C760.527 385.68 761.199 385.008 761.199 384.18C761.199 384.456 760.751 384.68 760.199 384.68L744.445 384.68L744.445 385.68Z" fill="black" mask="url(#path-118-inside-20_1893_2280)"/>
<rect x="813.391" y="57.1973" width="335.07" height="54.1267" transform="rotate(90 813.391 57.1973)" fill="#CACACA"/>
<rect x="385.75" y="255.75" width="25.5" height="6.72223" rx="0.75" transform="rotate(-180 385.75 255.75)" stroke="black" stroke-width="0.5"/>
<mask id="path-122-inside-21_1893_2280" fill="white">
<path d="M384 248.778L362 248.778L362 231C362 230.448 362.448 230 363 230L383 230C383.552 230 384 230.448 384 231L384 248.778Z"/>
</mask>
<path d="M384 248.778L362 248.778L384 248.778ZM362 230L384 230L362 230ZM383 230C383.828 230 384.5 230.672 384.5 231.5L384.5 248.778L383.5 248.778L383.5 231C383.5 230.448 383.276 230 383 230ZM361.5 248.778L361.5 231.5C361.5 230.672 362.172 230 363 230C362.724 230 362.5 230.448 362.5 231L362.5 248.778L361.5 248.778Z" fill="black" mask="url(#path-122-inside-21_1893_2280)"/>
<rect x="494.75" y="255.75" width="25.5" height="6.72223" rx="0.75" transform="rotate(-180 494.75 255.75)" stroke="black" stroke-width="0.5"/>
<mask id="path-125-inside-22_1893_2280" fill="white">
<path d="M493 248.778L471 248.778L471 231C471 230.448 471.448 230 472 230L492 230C492.552 230 493 230.448 493 231L493 248.778Z"/>
</mask>
<path d="M493 248.778L471 248.778L493 248.778ZM471 230L493 230L471 230ZM492 230C492.828 230 493.5 230.672 493.5 231.5L493.5 248.778L492.5 248.778L492.5 231C492.5 230.448 492.276 230 492 230ZM470.5 248.778L470.5 231.5C470.5 230.672 471.172 230 472 230C471.724 230 471.5 230.448 471.5 231L471.5 248.778L470.5 248.778Z" fill="black" mask="url(#path-125-inside-22_1893_2280)"/>
<rect y="4" width="23" height="22" fill="#4E4E4E"/>
<rect x="897" y="4" width="23" height="22" fill="#4E4E4E"/>
<rect x="23" y="4" width="874" height="10" fill="#404040"/>
<rect x="564" y="433" width="353" height="10" fill="#404040"/>
<rect x="62" y="433" width="353" height="10" fill="#404040"/>
<rect x="564" y="738" width="353" height="12" fill="#404040"/>
<rect x="62" y="738" width="353" height="12" fill="#404040"/>
<rect x="571" y="433" width="317" height="9.99999" transform="rotate(90 571 433)" fill="#4E4E4E"/>
<rect x="69" y="433" width="317" height="9.99999" transform="rotate(90 69 433)" fill="#4E4E4E"/>
<rect x="918" y="439" width="311" height="9.99999" transform="rotate(90 918 439)" fill="#4E4E4E"/>
<rect x="416" y="439" width="311" height="9.99999" transform="rotate(90 416 439)" fill="#4E4E4E"/>
<rect x="221" y="4" width="4" height="139" fill="#404040"/>
<rect x="221" y="149" width="4" height="139" fill="#404040"/>
<path d="M32 145L14.2951 26M2 26L20.1967 145H27.5738L8.88525 26H2Z" stroke="black"/>
<path d="M51 281L33.2951 149M21 149L41.5 281H46.5738L27.8852 149H21Z" stroke="black"/>
<rect x="19" y="142" width="206" height="7" fill="#404040"/>
<rect x="41" y="281" width="184" height="7" fill="#404040"/>
<rect x="48.25" y="44.25" width="25.5" height="4.5" rx="0.75" stroke="black" stroke-width="0.5"/>
<mask id="path-145-inside-23_1893_2280" fill="white">
<path d="M50 49H72V61C72 61.5523 71.5523 62 71 62H51C50.4477 62 50 61.5523 50 61V49Z"/>
</mask>
<path d="M50 49H72H50ZM72 62H50H72ZM51 62C50.1716 62 49.5 61.3284 49.5 60.5V49H50.5V61C50.5 61.5523 50.7239 62 51 62ZM72.5 49V60.5C72.5 61.3284 71.8284 62 71 62C71.2761 62 71.5 61.5523 71.5 61V49H72.5Z" fill="black" mask="url(#path-145-inside-23_1893_2280)"/>
<rect x="0.25" y="-0.25" width="25.5" height="4.5" rx="0.75" transform="matrix(1 0 0 -1 49 114.5)" stroke="black" stroke-width="0.5"/>
<mask id="path-148-inside-24_1893_2280" fill="white">
<path d="M51 110H73V98C73 97.4477 72.5523 97 72 97H52C51.4477 97 51 97.4477 51 98V110Z"/>
</mask>
<path d="M51 110H73H51ZM73 97H51H73ZM52 97C51.1716 97 50.5 97.6716 50.5 98.5V110H51.5V98C51.5 97.4477 51.7239 97 52 97ZM73.5 110V98.5C73.5 97.6716 72.8284 97 72 97C72.2761 97 72.5 97.4477 72.5 98V110H73.5Z" fill="black" mask="url(#path-148-inside-24_1893_2280)"/>
<rect x="76.25" y="44.25" width="25.5" height="4.5" rx="0.75" stroke="black" stroke-width="0.5"/>
<mask id="path-151-inside-25_1893_2280" fill="white">
<path d="M78 49H100V61C100 61.5523 99.5523 62 99 62H79C78.4477 62 78 61.5523 78 61V49Z"/>
</mask>
<path d="M78 49H100H78ZM100 62H78H100ZM79 62C78.1716 62 77.5 61.3284 77.5 60.5V49H78.5V61C78.5 61.5523 78.7239 62 79 62ZM100.5 49V60.5C100.5 61.3284 99.8284 62 99 62C99.2761 62 99.5 61.5523 99.5 61V49H100.5Z" fill="black" mask="url(#path-151-inside-25_1893_2280)"/>
<rect x="0.25" y="-0.25" width="25.5" height="4.5" rx="0.75" transform="matrix(1 0 0 -1 77 114.5)" stroke="black" stroke-width="0.5"/>
<mask id="path-154-inside-26_1893_2280" fill="white">
<path d="M79 110H101V98C101 97.4477 100.552 97 100 97H80C79.4477 97 79 97.4477 79 98V110Z"/>
</mask>
<path d="M79 110H101H79ZM101 97H79H101ZM80 97C79.1716 97 78.5 97.6716 78.5 98.5V110H79.5V98C79.5 97.4477 79.7239 97 80 97ZM101.5 110V98.5C101.5 97.6716 100.828 97 100 97C100.276 97 100.5 97.4477 100.5 98V110H101.5Z" fill="black" mask="url(#path-154-inside-26_1893_2280)"/>
<rect x="104.25" y="44.25" width="25.5" height="4.5" rx="0.75" stroke="black" stroke-width="0.5"/>
<mask id="path-157-inside-27_1893_2280" fill="white">
<path d="M106 49H128V61C128 61.5523 127.552 62 127 62H107C106.448 62 106 61.5523 106 61V49Z"/>
</mask>
<path d="M106 49H128H106ZM128 62H106H128ZM107 62C106.172 62 105.5 61.3284 105.5 60.5V49H106.5V61C106.5 61.5523 106.724 62 107 62ZM128.5 49V60.5C128.5 61.3284 127.828 62 127 62C127.276 62 127.5 61.5523 127.5 61V49H128.5Z" fill="black" mask="url(#path-157-inside-27_1893_2280)"/>
<rect x="180.75" y="64.25" width="25.5" height="4.5" rx="0.75" transform="rotate(90 180.75 64.25)" stroke="black" stroke-width="0.5"/>
<mask id="path-160-inside-28_1893_2280" fill="white">
<path d="M176 66L176 88L164 88C163.448 88 163 87.5523 163 87L163 67C163 66.4477 163.448 66 164 66L176 66Z"/>
</mask>
<path d="M176 66L176 88L176 66ZM163 88L163 66L163 88ZM163 67C163 66.1716 163.672 65.5 164.5 65.5L176 65.5L176 66.5L164 66.5C163.448 66.5 163 66.7239 163 67ZM176 88.5L164.5 88.5C163.672 88.5 163 87.8284 163 87C163 87.2761 163.448 87.5 164 87.5L176 87.5L176 88.5Z" fill="black" mask="url(#path-160-inside-28_1893_2280)"/>
<rect x="0.25" y="-0.25" width="25.5" height="4.5" rx="0.75" transform="matrix(1 0 0 -1 105 114.5)" stroke="black" stroke-width="0.5"/>
<mask id="path-163-inside-29_1893_2280" fill="white">
<path d="M107 110H129V98C129 97.4477 128.552 97 128 97H108C107.448 97 107 97.4477 107 98V110Z"/>
</mask>
<path d="M107 110H129H107ZM129 97H107H129ZM108 97C107.172 97 106.5 97.6716 106.5 98.5V110H107.5V98C107.5 97.4477 107.724 97 108 97ZM129.5 110V98.5C129.5 97.6716 128.828 97 128 97C128.276 97 128.5 97.4477 128.5 98V110H129.5Z" fill="black" mask="url(#path-163-inside-29_1893_2280)"/>
<rect x="41" y="57" width="94" height="41" fill="#CACACA"/>
<rect x="135" y="42" width="30" height="72" fill="#CACACA"/>
<rect x="68.25" y="192.25" width="25.5" height="4.5" rx="0.75" stroke="black" stroke-width="0.5"/>
<mask id="path-168-inside-30_1893_2280" fill="white">
<path d="M70 197H92V209C92 209.552 91.5523 210 91 210H71C70.4477 210 70 209.552 70 209V197Z"/>
</mask>
<path d="M70 197H92H70ZM92 210H70H92ZM71 210C70.1716 210 69.5 209.328 69.5 208.5V197H70.5V209C70.5 209.552 70.7239 210 71 210ZM92.5 197V208.5C92.5 209.328 91.8284 210 91 210C91.2761 210 91.5 209.552 91.5 209V197H92.5Z" fill="black" mask="url(#path-168-inside-30_1893_2280)"/>
<rect x="0.25" y="-0.25" width="25.5" height="4.5" rx="0.75" transform="matrix(1 0 0 -1 69 262.5)" stroke="black" stroke-width="0.5"/>
<mask id="path-171-inside-31_1893_2280" fill="white">
<path d="M71 258H93V246C93 245.448 92.5523 245 92 245H72C71.4477 245 71 245.448 71 246V258Z"/>
</mask>
<path d="M71 258H93H71ZM93 245H71H93ZM72 245C71.1716 245 70.5 245.672 70.5 246.5V258H71.5V246C71.5 245.448 71.7239 245 72 245ZM93.5 258V246.5C93.5 245.672 92.8284 245 92 245C92.2761 245 92.5 245.448 92.5 246V258H93.5Z" fill="black" mask="url(#path-171-inside-31_1893_2280)"/>
<rect x="96.25" y="192.25" width="25.5" height="4.5" rx="0.75" stroke="black" stroke-width="0.5"/>
<mask id="path-174-inside-32_1893_2280" fill="white">
<path d="M98 197H120V209C120 209.552 119.552 210 119 210H99C98.4477 210 98 209.552 98 209V197Z"/>
</mask>
<path d="M98 197H120H98ZM120 210H98H120ZM99 210C98.1716 210 97.5 209.328 97.5 208.5V197H98.5V209C98.5 209.552 98.7239 210 99 210ZM120.5 197V208.5C120.5 209.328 119.828 210 119 210C119.276 210 119.5 209.552 119.5 209V197H120.5Z" fill="black" mask="url(#path-174-inside-32_1893_2280)"/>
<rect x="0.25" y="-0.25" width="25.5" height="4.5" rx="0.75" transform="matrix(1 0 0 -1 97 262.5)" stroke="black" stroke-width="0.5"/>
<mask id="path-177-inside-33_1893_2280" fill="white">
<path d="M99 258H121V246C121 245.448 120.552 245 120 245H100C99.4477 245 99 245.448 99 246V258Z"/>
</mask>
<path d="M99 258H121H99ZM121 245H99H121ZM100 245C99.1716 245 98.5 245.672 98.5 246.5V258H99.5V246C99.5 245.448 99.7239 245 100 245ZM121.5 258V246.5C121.5 245.672 120.828 245 120 245C120.276 245 120.5 245.448 120.5 246V258H121.5Z" fill="black" mask="url(#path-177-inside-33_1893_2280)"/>
<rect x="124.25" y="192.25" width="25.5" height="4.5" rx="0.75" stroke="black" stroke-width="0.5"/>
<mask id="path-180-inside-34_1893_2280" fill="white">
<path d="M126 197H148V209C148 209.552 147.552 210 147 210H127C126.448 210 126 209.552 126 209V197Z"/>
</mask>
<path d="M126 197H148H126ZM148 210H126H148ZM127 210C126.172 210 125.5 209.328 125.5 208.5V197H126.5V209C126.5 209.552 126.724 210 127 210ZM148.5 197V208.5C148.5 209.328 147.828 210 147 210C147.276 210 147.5 209.552 147.5 209V197H148.5Z" fill="black" mask="url(#path-180-inside-34_1893_2280)"/>
<rect x="200.75" y="212.25" width="25.5" height="4.5" rx="0.75" transform="rotate(90 200.75 212.25)" stroke="black" stroke-width="0.5"/>
<mask id="path-183-inside-35_1893_2280" fill="white">
<path d="M196 214L196 236L184 236C183.448 236 183 235.552 183 235L183 215C183 214.448 183.448 214 184 214L196 214Z"/>
</mask>
<path d="M196 214L196 236L196 214ZM183 236L183 214L183 236ZM183 215C183 214.172 183.672 213.5 184.5 213.5L196 213.5L196 214.5L184 214.5C183.448 214.5 183 214.724 183 215ZM196 236.5L184.5 236.5C183.672 236.5 183 235.828 183 235C183 235.276 183.448 235.5 184 235.5L196 235.5L196 236.5Z" fill="black" mask="url(#path-183-inside-35_1893_2280)"/>
<rect x="0.25" y="-0.25" width="25.5" height="4.5" rx="0.75" transform="matrix(1 0 0 -1 125 262.5)" stroke="black" stroke-width="0.5"/>
<mask id="path-186-inside-36_1893_2280" fill="white">
<path d="M127 258H149V246C149 245.448 148.552 245 148 245H128C127.448 245 127 245.448 127 246V258Z"/>
</mask>
<path d="M127 258H149H127ZM149 245H127H149ZM128 245C127.172 245 126.5 245.672 126.5 246.5V258H127.5V246C127.5 245.448 127.724 245 128 245ZM149.5 258V246.5C149.5 245.672 148.828 245 148 245C148.276 245 148.5 245.448 148.5 246V258H149.5Z" fill="black" mask="url(#path-186-inside-36_1893_2280)"/>
<rect x="61" y="205" width="94" height="41" fill="#CACACA"/>
<rect x="155" y="190" width="30" height="72" fill="#CACACA"/>
<rect x="218" y="4" width="23" height="10" fill="#4E4E4E"/>
<rect x="642" y="3" width="23" height="11" fill="#696969"/>
<rect x="381" width="91" height="18" fill="#696969"/>
<path d="M220.5 138.5H183.5V130" stroke="#4E4E4E"/>
<path d="M185 125C189.5 115 203 95.9 221 99.5" stroke="#4E4E4E" stroke-dasharray="8 8"/>
<path d="M221 153H184V161.5" stroke="#4E4E4E"/>
<path d="M185.5 166.5C190 176.5 203.5 195.6 221.5 192" stroke="#4E4E4E" stroke-dasharray="8 8"/>
<rect x="421" y="18" width="8" height="154" fill="#4E4E4E"/>
<rect x="650" y="12" width="8" height="431" fill="#4E4E4E"/>
<rect x="909" y="12" width="8" height="431" fill="#4E4E4E"/>
<path d="M592 172H288.167H279V321.861L309.558 340H562.315L592 315.815V172Z" stroke="#4E4E4E" stroke-width="5"/>
<path d="M417 339.5V174.5H432V339.5H417Z" stroke="#4E4E4E" stroke-width="3" stroke-dasharray="30 30"/>
<path d="M331.5 232.5V174.5H416V232.5H331.5Z" stroke="#4E4E4E" stroke-width="3"/>
<path d="M432 232.5V174.5H516.5V232.5H432Z" stroke="#4E4E4E" stroke-width="3"/>
<path d="M274.68 256H325V267.56" stroke="#4E4E4E"/>
<path d="M322.961 274.36C316.841 287.96 298.481 313.936 274.001 309.04" stroke="#4E4E4E" stroke-dasharray="8 8"/>
<path d="M591.32 256H541V267.56" stroke="#4E4E4E"/>
<path d="M543.039 274.36C549.159 287.96 567.519 313.936 591.999 309.04" stroke="#4E4E4E" stroke-dasharray="8 8"/>
<path d="M283 172C281.4 163.6 268.667 119.833 262.5 99" stroke="#4E4E4E"/>
<rect x="571" y="513" width="45" height="180" fill="#D9D9D9"/>
<rect x="69" y="513" width="45" height="180" fill="#D9D9D9"/>
<path d="M44 287L62.9265 433M58.0735 287L77 433" stroke="#636363" stroke-width="8"/>
</svg>
