<svg width="256" height="192" viewBox="0 0 256 192" fill="none" xmlns="http://www.w3.org/2000/svg">
<path d="M202.667 0H53.3333C39.1937 0.0169371 25.638 5.64141 15.6397 15.6397C5.64141 25.6379 0.0169371 39.1937 0 53.3333H256C255.983 39.1937 250.359 25.6379 240.36 15.6397C230.362 5.64141 216.806 0.0169371 202.667 0V0Z" fill="#F86624"/>
<path d="M0 138.665C0.0169371 152.805 5.64141 166.36 15.6397 176.359C25.638 186.357 39.1937 191.981 53.3333 191.998H202.667C216.806 191.981 230.362 186.357 240.36 176.359C250.359 166.36 255.983 152.805 256 138.665V74.665H0V138.665ZM74.6667 133.332C74.6667 136.496 73.7283 139.59 71.9702 142.221C70.2121 144.852 67.7132 146.903 64.7896 148.114C61.866 149.325 58.6489 149.642 55.5452 149.024C52.4415 148.407 49.5906 146.883 47.353 144.645C45.1153 142.408 43.5915 139.557 42.9741 136.453C42.3567 133.349 42.6736 130.132 43.8846 127.209C45.0956 124.285 47.1464 121.786 49.7775 120.028C52.4087 118.27 55.5022 117.332 58.6667 117.332C62.9101 117.332 66.9798 119.017 69.9804 122.018C72.981 125.019 74.6667 129.088 74.6667 133.332" fill="#F86624"/>
</svg>
