<svg width="256" height="171" viewBox="0 0 256 171" fill="none" xmlns="http://www.w3.org/2000/svg">
<path d="M202.667 0H53.3333C39.1937 0.0169371 25.638 5.64141 15.6397 15.6397C5.64141 25.638 0.0169371 39.1937 0 53.3333L0 117.333C0.0169371 131.473 5.64141 145.029 15.6397 155.027C25.638 165.025 39.1937 170.65 53.3333 170.667H202.667C216.806 170.65 230.362 165.025 240.36 155.027C250.359 145.029 255.983 131.473 256 117.333V53.3333C255.983 39.1937 250.359 25.638 240.36 15.6397C230.362 5.64141 216.806 0.0169371 202.667 0V0ZM42.6667 138.667C40.557 138.667 38.4947 138.041 36.7406 136.869C34.9865 135.697 33.6193 134.031 32.812 132.082C32.0046 130.133 31.7934 127.988 32.205 125.919C32.6165 123.85 33.6324 121.949 35.1242 120.458C36.616 118.966 38.5166 117.95 40.5857 117.538C42.6548 117.127 44.7995 117.338 46.7486 118.145C48.6977 118.953 50.3636 120.32 51.5357 122.074C52.7077 123.828 53.3333 125.89 53.3333 128C53.3333 130.829 52.2095 133.542 50.2091 135.542C48.2088 137.543 45.4956 138.667 42.6667 138.667ZM42.6667 53.3333C40.557 53.3333 38.4947 52.7077 36.7406 51.5357C34.9865 50.3636 33.6193 48.6977 32.812 46.7486C32.0046 44.7995 31.7934 42.6548 32.205 40.5857C32.6165 38.5166 33.6324 36.616 35.1242 35.1242C36.616 33.6324 38.5166 32.6165 40.5857 32.205C42.6548 31.7934 44.7995 32.0046 46.7486 32.812C48.6977 33.6193 50.3636 34.9865 51.5357 36.7406C52.7077 38.4947 53.3333 40.557 53.3333 42.6667C53.3333 45.4956 52.2095 48.2088 50.2091 50.2091C48.2088 52.2095 45.4956 53.3333 42.6667 53.3333ZM128 128C119.561 128 111.312 125.498 104.296 120.809C97.2792 116.121 91.8105 109.457 88.5811 101.661C85.3518 93.8649 84.5069 85.286 86.1532 77.0095C87.7995 68.733 91.8631 61.1305 97.8301 55.1634C103.797 49.1964 111.4 45.1328 119.676 43.4865C127.953 41.8402 136.532 42.6851 144.328 45.9145C152.124 49.1438 158.788 54.6125 163.476 61.629C168.164 68.6455 170.667 76.8947 170.667 85.3333C170.667 96.6492 166.171 107.502 158.17 115.503C150.168 123.505 139.316 128 128 128ZM213.333 138.667C211.224 138.667 209.161 138.041 207.407 136.869C205.653 135.697 204.286 134.031 203.479 132.082C202.671 130.133 202.46 127.988 202.872 125.919C203.283 123.85 204.299 121.949 205.791 120.458C207.283 118.966 209.183 117.95 211.252 117.538C213.321 117.127 215.466 117.338 217.415 118.145C219.364 118.953 221.03 120.32 222.202 122.074C223.374 123.828 224 125.89 224 128C224 130.829 222.876 133.542 220.876 135.542C218.875 137.543 216.162 138.667 213.333 138.667ZM213.333 53.3333C211.224 53.3333 209.161 52.7077 207.407 51.5357C205.653 50.3636 204.286 48.6977 203.479 46.7486C202.671 44.7995 202.46 42.6548 202.872 40.5857C203.283 38.5166 204.299 36.616 205.791 35.1242C207.283 33.6324 209.183 32.6165 211.252 32.205C213.321 31.7934 215.466 32.0046 217.415 32.812C219.364 33.6193 221.03 34.9865 222.202 36.7406C223.374 38.4947 224 40.557 224 42.6667C224 45.4956 222.876 48.2088 220.876 50.2091C218.875 52.2095 216.162 53.3333 213.333 53.3333ZM149.333 85.3333C149.333 89.5527 148.082 93.6773 145.738 97.1855C143.394 100.694 140.062 103.428 136.164 105.043C132.266 106.657 127.976 107.08 123.838 106.257C119.7 105.434 115.899 103.402 112.915 100.418C109.932 97.4348 107.9 93.6335 107.077 89.4953C106.253 85.357 106.676 81.0676 108.291 77.1694C109.905 73.2713 112.64 69.9395 116.148 67.5953C119.656 65.2512 123.781 64 128 64C133.658 64 139.084 66.2476 143.085 70.2484C147.086 74.2492 149.333 79.6754 149.333 85.3333Z" fill="#FFCC16"/>
</svg>
