<svg width="32" height="42" viewBox="0 0 32 42" fill="none" xmlns="http://www.w3.org/2000/svg">
<path d="M7.63988 8.63191H19.4273C20.2384 8.63191 20.8958 7.97448 20.8958 7.16342V5.17252C20.8958 4.69149 20.5059 4.3015 20.0249 4.3015H16.0223C16.1146 4.03318 16.1672 3.74651 16.1672 3.44718C16.1672 1.99498 14.9857 0.813477 13.5335 0.813477C12.0814 0.813477 10.8998 1.99498 10.8998 3.44718C10.8998 3.74651 10.9525 4.03318 11.0448 4.3015H7.04233C6.56129 4.3015 6.17139 4.69149 6.17139 5.17252V7.16334C6.17139 7.97448 6.82882 8.63191 7.63988 8.63191ZM13.5335 2.05549C14.3009 2.05549 14.9253 2.67994 14.9253 3.44726C14.9253 3.77071 14.8098 4.06498 14.6239 4.30158H12.4432C12.2573 4.06498 12.1418 3.77071 12.1418 3.44726C12.1418 2.67986 12.7662 2.05549 13.5335 2.05549Z" fill="white"/>
<path d="M20.0621 35.0095C20.0621 31.4905 22.927 28.6257 26.4458 28.6257C26.657 28.6257 26.864 28.6341 27.0668 28.6547V7.43765C27.0668 6.19152 26.0525 5.17725 24.8064 5.17725H21.7221V7.16443C21.7221 8.43128 20.6954 9.45798 19.4287 9.45798H7.63816C6.37549 9.45798 5.34469 8.43128 5.34469 7.16443V5.17725H2.26041C1.01428 5.17725 0 6.19152 0 7.43765V38.9258C0 40.172 1.01428 41.1863 2.26041 41.1863H24.8313C22.0907 40.47 20.0621 37.9695 20.0621 35.0095ZM11.004 13.4447H22.7075C23.0512 13.4447 23.3285 13.722 23.3285 14.0656C23.3285 14.4051 23.0512 14.6866 22.7075 14.6866H11.004C10.6603 14.6866 10.383 14.4051 10.383 14.0656C10.383 13.722 10.6603 13.4447 11.004 13.4447ZM11.004 19.5055H22.7075C23.0512 19.5055 23.3285 19.7828 23.3285 20.1265C23.3285 20.4701 23.0512 20.7474 22.7075 20.7474H11.004C10.6603 20.7474 10.383 20.47 10.383 20.1265C10.383 19.7828 10.6603 19.5055 11.004 19.5055ZM7.61751 25.6449L5.65106 27.6073C5.42355 27.8427 5.02447 27.8584 4.77339 27.6073L3.92057 26.7545C3.68041 26.5144 3.68041 26.1211 3.92057 25.8768C4.16484 25.6367 4.55807 25.6367 4.79823 25.8768L5.21218 26.2907L6.73985 24.7673C6.98412 24.523 7.37324 24.523 7.61751 24.7673C7.86178 25.0074 7.86178 25.4007 7.61751 25.6449ZM7.61751 19.58L5.65106 21.5465C5.40306 21.7944 5.01063 21.7837 4.77339 21.5465L3.92057 20.6936C3.68041 20.4535 3.68041 20.0603 3.92057 19.816C4.16484 19.5717 4.55807 19.5717 4.79823 19.816L5.21218 20.2299L6.73985 18.7023C6.98001 18.4621 7.37324 18.4621 7.61751 18.7023C7.86178 18.9466 7.86178 19.3399 7.61751 19.58ZM7.61751 13.5192L5.65106 15.4856C5.41604 15.7207 5.03262 15.7363 4.77339 15.4856L3.92057 14.6328C3.68041 14.3886 3.68041 13.9952 3.92057 13.7552C4.16484 13.5109 4.55807 13.5109 4.79823 13.7552L5.21218 14.1691L6.73985 12.6415C6.98412 12.4013 7.37324 12.4013 7.61751 12.6415C7.86178 12.8857 7.86178 13.279 7.61751 13.5192ZM10.383 26.1873C10.383 25.8436 10.6603 25.5663 11.004 25.5663H22.7075C23.0512 25.5663 23.3285 25.8437 23.3285 26.1873C23.3285 26.5309 23.0512 26.8082 22.7075 26.8082H11.004C10.6603 26.8083 10.383 26.5309 10.383 26.1873Z" fill="white"/>
<path d="M26.4444 29.4517C23.3756 29.4517 20.8892 31.9414 20.8892 35.0102C20.8892 38.079 23.3756 40.5654 26.4444 40.5654C29.5132 40.5654 31.9997 38.0789 31.9997 35.0102C31.9997 31.9414 29.5133 29.4517 26.4444 29.4517ZM28.793 34.0951L26.0884 36.8C25.9671 36.9212 25.8082 36.9819 25.6493 36.9819C25.4904 36.9819 25.3316 36.9212 25.2103 36.8L24.0957 35.6856C23.8531 35.4432 23.8531 35.05 24.0957 34.8074C24.3382 34.5648 24.7312 34.5649 24.9738 34.8074L25.6493 35.4828L27.915 33.2169C28.1575 32.9744 28.5505 32.9744 28.7931 33.2169C29.0356 33.4593 29.0356 33.8526 28.793 34.0951Z" fill="white"/>
</svg>
