<svg width="36" height="36" viewBox="0 0 36 36" fill="none" xmlns="http://www.w3.org/2000/svg">
<path d="M29.809 21.8818C29.4574 21.7061 29.0424 21.7061 28.6908 21.8818C28.6908 21.8818 23.6133 24.4367 23.5732 24.4629L29.2499 27.3011L34.9265 24.4629C34.8865 24.4367 29.809 21.8818 29.809 21.8818Z" fill="white"/>
<path d="M23 31.7499C23 32.2235 23.2673 32.6562 23.6909 32.868L28.625 35.4999V28.3862L23 25.5737V31.7499Z" fill="white"/>
<path d="M29.875 28.3862V35.4999L34.8091 32.868C35.2327 32.6562 35.5 32.2235 35.5 31.7499V25.5737L29.875 28.3862Z" fill="white"/>
<path d="M14.809 21.8818C14.4574 21.7061 14.0424 21.7061 13.6908 21.8818C13.6908 21.8818 8.6133 24.4367 8.57324 24.4629L14.2499 27.3011L19.9265 24.4629C19.8865 24.4367 14.809 21.8818 14.809 21.8818Z" fill="white"/>
<path d="M8 31.7499C8 32.2235 8.26733 32.6562 8.69092 32.868L13.625 35.4999V28.3862L8 25.5737V31.7499Z" fill="white"/>
<path d="M14.875 35.4999L19.8091 32.868C20.2327 32.6562 20.5 32.2235 20.5 31.7499V25.5737L14.875 28.3862V35.4999Z" fill="white"/>
<path d="M22.309 9.38184C21.9574 9.20605 21.5424 9.20605 21.1908 9.38184C21.1908 9.38184 16.1133 11.9367 16.0732 11.9629L21.7499 14.8011L27.4265 11.9629C27.3865 11.9367 22.309 9.38184 22.309 9.38184Z" fill="white"/>
<path d="M15.5 19.2499C15.5 19.7235 15.7673 20.1562 16.1909 20.368L21.125 22.9999V15.8862L15.5 13.0737V19.2499Z" fill="white"/>
<path d="M6.75 31.75V24.1593C6.75 24.1593 7.98901 23.3516 13.1288 20.7655C13.4773 20.5909 13.8203 20.5 14.25 20.5V11.6593C14.25 11.6593 15.489 10.8516 20.6294 8.2655C20.9773 8.09094 21.3643 8 21.75 8C22.1357 8 22.5227 8.09094 22.8682 8.26367C23.3826 8.52246 23.8328 8.74898 24.25 8.95894V1.75C24.25 1.05969 23.6903 0.5 23 0.5H18.5213L17.3561 5.15942C17.2865 5.43774 17.0369 5.63306 16.75 5.63306H8C7.71313 5.63306 7.4635 5.43774 7.39392 5.15942L6.22868 0.5H1.75C1.05969 0.5 0.5 1.05969 0.5 1.75V34.25C0.5 34.9403 1.05969 35.5 1.75 35.5H10.9688L8.10254 33.9711C7.27979 33.5597 6.75 32.7034 6.75 31.75ZM5.5 9.25C6.87878 9.25 8 10.3712 8 11.75C8 13.1288 6.87878 14.25 5.5 14.25C4.12122 14.25 3 13.1288 3 11.75C3 10.3712 4.12122 9.25 5.5 9.25ZM3 19.25C3 17.8712 4.12122 16.75 5.5 16.75C6.87878 16.75 8 17.8712 8 19.25C8 20.6288 6.87878 21.75 5.5 21.75C4.12122 21.75 3 20.6288 3 19.25Z" fill="white"/>
<path d="M28 19.2499V13.0737L22.375 15.8862V22.9999L27.3091 20.368C27.7327 20.1562 28 19.7235 28 19.2499Z" fill="white"/>
<path d="M16.2615 4.38306L17.2325 0.5H7.51709L8.48808 4.38306H16.2615Z" fill="white"/>
</svg>
