<svg width="18" height="20" viewBox="0 0 18 20" fill="none" xmlns="http://www.w3.org/2000/svg">
<path d="M16.6555 18.9178L17.1324 19.5083C16.7289 19.8247 16.2288 20 15.7025 20C15.5957 20 15.4898 19.9928 15.3853 19.9786L15.4902 19.231C15.56 19.2405 15.6309 19.2453 15.7025 19.2453C16.0539 19.2453 16.3863 19.1288 16.6555 18.9178ZM10.2919 15.3791C11.558 15.3791 12.5844 16.3904 12.5844 17.6379C12.5844 18.8855 11.558 19.8968 10.2919 19.8968C9.02575 19.8968 7.99936 18.8855 7.99936 17.6379C7.99936 16.3904 9.02575 15.3791 10.2919 15.3791ZM14.2016 18.0402C14.287 18.4518 14.545 18.8094 14.9082 19.0269L14.5103 19.6718C13.9661 19.3459 13.5795 18.81 13.4511 18.1914L14.2016 18.0402ZM7.39711 0C8.59914 0 9.61625 0.765283 10.0046 1.8221H12.9449C13.9621 1.8221 14.7942 2.64205 14.7942 3.6442V9.11051H12.9449V3.6442H11.0957V6.37736H3.69856V3.6442H1.84928V17.31H6.47247V19.1321H1.84928C0.832175 19.1321 0 18.3121 0 17.31V3.6442C0 2.64205 0.832175 1.8221 1.84928 1.8221H4.78963C5.17798 0.765283 6.19508 0 7.39711 0ZM17.8598 16.9546C17.9472 17.1889 17.9949 17.4369 18 17.6978C18.0004 18.0933 17.9155 18.4469 17.7476 18.769L17.0663 18.4242C17.1779 18.2101 17.2343 17.9751 17.2341 17.7056C17.2307 17.5359 17.199 17.3708 17.1409 17.215L17.8598 16.9546ZM14.5211 15.7935L14.9153 16.4406C14.5509 16.6561 14.291 17.0124 14.2033 17.4234L13.4537 17.2682C13.5855 16.6504 13.975 16.1165 14.5211 15.7935ZM15.7025 15.4717C16.3501 15.4717 16.9554 15.7376 17.3873 16.1961L16.8258 16.7095C16.5374 16.4033 16.1348 16.2264 15.7025 16.2264C15.639 16.227 15.5619 16.2314 15.4999 16.2394L15.3998 15.4912C15.4927 15.4791 15.6079 15.4725 15.7025 15.4717ZM15.5597 10.1887C16.8258 10.1887 17.8522 11.2 17.8522 12.4475C17.8522 13.695 16.8258 14.7063 15.5597 14.7063C14.2936 14.7063 13.2672 13.695 13.2672 12.4475C13.2672 11.2 14.2936 10.1887 15.5597 10.1887ZM10.2919 10.1887C11.558 10.1887 12.5844 11.2 12.5844 12.4475C12.5844 13.695 11.558 14.7063 10.2919 14.7063C9.02575 14.7063 7.99936 13.695 7.99936 12.4475C7.99936 11.2 9.02575 10.1887 10.2919 10.1887ZM7.39711 1.8221C6.88856 1.8221 6.47247 2.23208 6.47247 2.73315C6.47247 3.23423 6.88856 3.6442 7.39711 3.6442C7.90566 3.6442 8.32175 3.23423 8.32175 2.73315C8.32175 2.23208 7.90566 1.8221 7.39711 1.8221Z" fill="#202224"/>
</svg>
