<svg width="256" height="256" viewBox="0 0 256 256" fill="none" xmlns="http://www.w3.org/2000/svg">
<path d="M242.217 242.212C238.057 246.372 231.295 246.372 227.134 242.212L212.052 227.129L196.958 242.212C192.862 246.447 186.11 246.564 181.875 242.479C177.641 238.383 177.523 231.631 181.609 227.396C181.694 227.311 181.779 227.215 181.875 227.129L196.958 212.047L181.875 196.953C177.641 192.857 177.523 186.105 181.609 181.87C185.705 177.636 192.457 177.518 196.692 181.604C196.777 181.689 196.873 181.774 196.958 181.87L212.052 196.953L227.134 181.87C231.231 177.636 237.983 177.518 242.217 181.604C246.452 185.7 246.569 192.452 242.484 196.686C242.399 196.772 242.313 196.868 242.217 196.953L227.134 212.047L242.217 227.129C246.399 231.279 246.452 237.999 242.303 242.18C242.281 242.201 242.271 242.223 242.217 242.212Z" fill="#EB3D4D"/>
<path d="M149.713 213.49C149.67 178.322 178.14 149.778 213.298 149.724C226.983 149.703 240.316 154.098 251.303 162.258C270.215 94.1506 230.332 23.6114 162.236 4.69919C94.1392 -14.213 23.6106 25.6594 4.69844 93.7666C-14.2137 161.874 25.6693 232.424 93.7658 251.336C116.166 257.555 139.836 257.555 162.236 251.336C154.108 240.392 149.713 227.122 149.713 213.49ZM138.673 128.231C138.673 131.068 137.542 133.778 135.537 135.783L103.483 167.847C99.2379 171.943 92.4752 171.826 88.3791 167.581C84.3791 163.442 84.3791 156.871 88.3791 152.732L117.307 123.804V74.8011C117.307 68.9024 122.086 64.113 127.995 64.113C133.894 64.113 138.673 68.9024 138.673 74.8011V128.231Z" fill="#EB3D4D"/>
</svg>
