<svg width="37" height="45" viewBox="0 0 37 45" fill="none" xmlns="http://www.w3.org/2000/svg">
<path d="M9.73411 14.9169C10.2294 20.0442 13.5457 23.4306 18.2482 23.4306C22.9505 23.4306 26.2664 20.0442 26.7619 14.9169L27.4639 9.37723C27.8994 3.93469 23.4582 0 18.2482 0C13.0379 0 8.59672 3.93469 9.03195 9.37723L9.73411 14.9169Z" fill="#FFCC16"/>
<path d="M36.4606 37.1398L36.1245 34.9997C35.843 33.2052 34.7152 31.6562 33.0945 30.8371L26.0217 27.2606C25.8003 27.1486 25.62 26.9799 25.4689 26.7914C23.4213 28.9563 20.9338 30.2297 18.2487 30.2297C15.5637 30.2297 13.0758 28.9563 11.0283 26.7914C10.8772 26.9799 10.697 27.1486 10.4756 27.2606L3.40284 30.8371C1.78197 31.6562 0.654328 33.2052 0.372815 34.9997L0.0365453 37.1398C-0.0832496 37.9038 0.0748656 39.0249 0.759182 39.5854C1.67412 40.3336 5.05396 45 18.2487 45C31.4433 45 34.823 40.3336 35.7379 39.5854C36.4225 39.0249 36.5804 37.9038 36.4606 37.1398Z" fill="#FFCC16"/>
</svg>
