<svg clip-rule="evenodd" fill-rule="evenodd" stroke-linejoin="round" stroke-miterlimit="2" viewBox="0 0 510 510" xmlns="http://www.w3.org/2000/svg"><g id="Artboard441"><path d="m156.951 403.775h-108.322c-22.89 0-41.629-18.739-41.629-41.63v-231.278c0-22.891 18.739-41.629 41.629-41.629h46.02c4.415 0 8 3.585 8 8s-3.585 8-8 8h-46.02c-14.092 0-25.629 11.536-25.629 25.629v231.278c0 14.093 11.537 25.63 25.629 25.63h292.864c-4.529-10.342-7.042-21.767-7.042-33.781 0-2.307.093-4.592.274-6.852h-291.617c-4.418 0-8-3.581-8-8v-209.106c0-7.001 5.689-12.66 12.69-12.66h46.851c4.415 0 8 3.585 8 8s-3.585 8-8 8h-43.541v197.766h286.477c9.743-34.673 41.11-60.29 78.634-61.386v-136.38h-43.54c-4.416 0-8-3.585-8-8s3.584-8 8-8h46.88c6.935 0 12.66 5.645 12.66 12.66v140.758c4.145.667 8.189 1.636 12.109 2.884v-142.811c0-14.093-11.537-25.629-25.63-25.629h-46.019c-4.416 0-8-3.585-8-8s3.584-8 8-8h46.019c22.891 0 41.63 18.738 41.63 41.629v149.818c25.485 14.492 42.672 41.891 42.672 73.309 0 46.549-37.726 84.275-84.275 84.275-27.925 0-52.676-13.579-68.01-34.494h-40.309v37.426h43.171c20.599 0 36.673 14.437 36.673 30.885v22.914c0 4.418-3.582 8-8 8h-297.142c-4.419 0-8-3.582-8-8v-22.914c0-16.448 16.074-30.885 36.672-30.885h43.171zm137.455 0h-121.455v37.426h121.455zm79.919 2.089c11.937 10.227 27.446 16.405 44.4 16.405 16.955 0 32.464-6.178 44.401-16.405-4.076-20.806-22.412-36.506-44.401-36.506s-40.324 15.7-44.4 36.506zm101.256-14.053c7.214-10.826 11.419-23.83 11.419-37.817 0-37.711-30.564-68.274-68.275-68.274-37.71 0-68.274 30.563-68.274 68.274 0 13.987 4.205 26.991 11.419 37.817 5.913-14.724 17.375-26.624 31.795-33.104-6.106-6.297-9.876-14.871-9.876-24.286 0-19.222 15.715-34.937 34.936-34.937 19.222 0 34.937 15.715 34.937 34.937 0 9.415-3.77 17.989-9.877 24.286 14.421 6.48 25.883 18.38 31.796 33.104zm-56.856-38.453c10.419 0 18.937-8.519 18.937-18.937 0-10.419-8.518-18.937-18.937-18.937-10.418 0-18.936 8.518-18.936 18.937 0 10.418 8.518 18.937 18.936 18.937zm-325.617 133.642h281.142v-14.914c0-8.739-9.729-14.885-20.673-14.885h-239.797c-10.944 0-20.672 6.146-20.672 14.885zm143.688-479.353 109.034 46.718c2.941 1.26 4.849 4.153 4.849 7.353v94.718c0 67.897-49.038 126.797-115.539 139.446-.988.187-2.002.187-2.99-.001-66.463-12.648-115.501-71.547-115.501-139.445v-94.718c0-3.2 1.907-6.092 4.848-7.353l108.997-46.718c2.012-.863 4.29-.863 6.302 0zm-3.15 16.057-100.997 43.289v89.443c0 59.736 42.784 111.618 100.998 123.433 58.246-11.815 101.032-63.696 101.032-123.433v-89.442zm-5.831 228.314-19.892-21.37c-1.378-1.48-2.144-3.428-2.144-5.45v-7.389c0-2.258.954-4.412 2.628-5.928l5.458-4.945-5.458-4.944c-1.674-1.517-2.629-3.672-2.628-5.931 0-2.26.957-4.414 2.632-5.93l5.45-4.931-5.454-4.94c-1.674-1.517-2.628-3.67-2.628-5.929v-34.391c-13.335-8.98-22.109-24.207-22.109-41.498 0-27.598 22.386-49.987 50.001-49.987 27.599 0 49.987 22.388 49.987 49.987 0 17.291-8.775 32.519-22.109 41.498v85.258c0 2.021-.765 3.968-2.142 5.448l-19.879 21.37c-1.513 1.627-3.634 2.551-5.856 2.552-2.221 0-4.343-.924-5.857-2.55zm5.854-17.194 11.88-12.772v-86.613c0-2.942 1.614-5.646 4.203-7.042 10.656-5.745 17.906-16.997 17.906-29.955 0-18.765-15.222-33.987-33.987-33.987-18.777 0-34.001 15.221-34.001 33.987 0 12.958 7.25 24.21 17.905 29.955 2.589 1.396 4.204 4.1 4.204 7.042v35.345l9.373 8.491c1.675 1.517 2.63 3.672 2.629 5.932-.001 2.259-.957 4.413-2.633 5.929l-5.45 4.931 5.454 4.94c1.674 1.517 2.629 3.671 2.629 5.929 0 2.259-.955 4.413-2.629 5.929l-9.373 8.492v.693zm20.478-146.53c0 11.302-9.174 20.476-20.476 20.476-11.323 0-20.49-9.177-20.49-20.476 0-11.32 9.17-20.49 20.49-20.49 11.299 0 20.476 9.167 20.476 20.49zm-16 0c0-2.478-2.003-4.49-4.476-4.49-2.481 0-4.49 2.009-4.49 4.49 0 2.473 2.012 4.476 4.49 4.476 2.47 0 4.476-2.006 4.476-4.476z"/></g></svg>