<svg width="415" height="256" viewBox="0 0 415 256" fill="none" xmlns="http://www.w3.org/2000/svg">
<path d="M119.61 180.026C119.547 179.38 119.344 178.785 119.344 178.139V172.605C119.344 169.971 119.775 167.375 120.636 164.905C120.636 164.905 134.428 146.44 140.951 124.746C133.807 109.675 127.323 90.9194 127.323 72.3275C127.323 68.0091 127.64 63.83 128.084 59.7133C118.775 49.9619 106.199 44.4398 92.3061 44.4398C63.6207 44.4398 40.344 67.8437 40.344 104.216C40.344 133.319 64.0268 164.904 64.0268 164.904C64.8624 167.374 65.2936 169.97 65.2936 172.604V178.139C65.2936 185.041 61.2661 191.323 54.9846 194.198L17.3834 209.559C8.64431 213.587 2.42595 221.616 0.691422 231.064L0.0454321 239.333C-0.283642 243.64 1.18503 247.882 4.12319 251.036C7.04838 254.215 11.165 256 15.4835 256H76.9442L79.4641 223.617L79.6286 222.743C82.7062 205.761 93.9271 191.323 109.605 184.104L119.61 180.026Z" fill="#883DCF"/>
<path d="M414.299 231.064C412.577 221.616 406.358 213.586 397.62 209.559L359.994 194.198C353.712 191.323 349.71 185.041 349.71 178.139V172.604C349.71 169.97 350.128 167.374 350.989 164.904C350.989 164.904 374.659 133.319 374.659 104.216C374.659 67.8437 351.394 44.4398 322.659 44.4398C308.791 44.4398 296.215 49.9619 286.881 59.7385C287.337 63.8421 287.654 68.0082 287.654 72.3267C287.654 90.9056 281.182 109.662 274.052 124.732C280.561 146.427 294.379 164.904 294.379 164.904C295.214 167.374 295.658 169.97 295.658 172.604V178.139C295.658 178.785 295.442 179.379 295.379 180.025L304.7 183.825C321.037 191.297 332.258 205.735 335.373 222.718L335.526 223.604L338.033 256H399.519C403.838 256 407.954 254.215 410.867 251.036C413.805 247.882 415.274 243.64 414.944 239.333L414.299 231.064Z" fill="#883DCF"/>
<path d="M298.167 199.82L252.651 181.216C245.053 177.72 240.203 170.121 240.203 161.788V155.076C240.203 151.911 240.709 148.757 241.76 145.755C241.76 145.755 270.383 107.559 270.383 72.3266C270.383 28.3044 242.23 0 207.49 0C172.764 0 144.598 28.3052 144.598 72.3266C144.598 107.559 173.246 145.755 173.246 145.755C174.272 148.757 174.804 151.911 174.804 155.076V161.788C174.804 170.121 169.915 177.72 162.329 181.216L116.813 199.82C106.238 204.67 98.7024 214.397 96.6258 225.845L94.2826 255.999H207.49H320.698L318.381 225.845C316.278 214.397 308.742 204.671 298.167 199.82Z" fill="#883DCF"/>
</svg>
