<svg width="150" height="256" viewBox="0 0 150 256" fill="none" xmlns="http://www.w3.org/2000/svg">
<path d="M54.3936 213.333C45.7169 213.325 37.398 209.874 31.2627 203.739C25.1273 197.604 21.6768 189.285 21.6683 180.608C21.6683 177.779 20.5445 175.066 18.5441 173.065C16.5437 171.065 13.8306 169.941 11.0016 169.941C8.17265 169.941 5.45954 171.065 3.45916 173.065C1.45877 175.066 0.334961 177.779 0.334961 180.608V181.333C0.334961 181.536 0.334961 181.717 0.334961 181.92C0.690943 196.024 6.54149 209.432 16.6396 219.285C26.7378 229.138 40.2849 234.657 54.3936 234.667H64.335V245.333C64.335 248.162 65.4588 250.875 67.4592 252.876C69.4595 254.876 72.1726 256 75.0016 256C77.8306 256 80.5437 254.876 82.5441 252.876C84.5445 250.875 85.6683 248.162 85.6683 245.333V234.667H95.6096C108.438 234.653 120.844 230.077 130.609 221.758C140.374 213.439 146.863 201.918 148.915 189.254C150.966 176.591 148.448 163.61 141.809 152.633C135.17 141.656 124.844 133.397 112.676 129.333L85.6683 120.32V42.6666H95.6096C104.286 42.6751 112.605 46.1256 118.741 52.261C124.876 58.3963 128.326 66.7152 128.335 75.3919C128.335 78.2209 129.459 80.934 131.459 82.9344C133.46 84.9348 136.173 86.0586 139.002 86.0586C141.831 86.0586 144.544 84.9348 146.544 82.9344C148.544 80.934 149.668 78.2209 149.668 75.3919V74.6666C149.668 74.4639 149.668 74.2826 149.668 74.0799C149.312 59.9757 143.462 46.5683 133.364 36.7152C123.265 26.8621 109.718 21.3427 95.6096 21.3333H85.6683V10.6666C85.6683 7.83763 84.5445 5.12452 82.5441 3.12413C80.5437 1.12375 77.8306 -6.10352e-05 75.0016 -6.10352e-05C72.1726 -6.10352e-05 69.4595 1.12375 67.4592 3.12413C65.4588 5.12452 64.335 7.83763 64.335 10.6666V21.3333H54.3936C41.565 21.347 29.1594 25.9224 19.3941 34.2418C9.62881 42.5612 3.14039 54.0823 1.08859 66.7458C-0.96321 79.4093 1.55534 92.3897 8.19408 103.367C14.8328 114.344 25.159 122.603 37.327 126.667L64.335 135.68V213.333H54.3936ZM85.6683 142.795L105.935 149.557C113.308 152.011 119.568 157.009 123.593 163.657C127.619 170.304 129.147 178.167 127.905 185.838C126.663 193.509 122.732 200.488 116.815 205.526C110.897 210.564 103.381 213.331 95.6096 213.333H85.6683V142.795ZM44.0683 106.443C36.6948 103.989 30.4353 98.9906 26.41 92.3432C22.3847 85.6959 20.8562 77.833 22.0982 70.1618C23.3401 62.4906 27.2715 55.5116 33.1886 50.474C39.1058 45.4364 46.6225 42.6688 54.3936 42.6666H64.335V113.205L44.0683 106.443Z" fill="#2BB2FE"/>
</svg>
