<svg width="28" height="28" viewBox="0 0 28 28" fill="none" xmlns="http://www.w3.org/2000/svg">
<g clip-path="url(#clip0_1836_8812)">
<path d="M26.0473 26.0463C25.6085 26.485 24.8953 26.485 24.4565 26.0463L22.8658 24.4555L21.2739 26.0463C20.8419 26.4929 20.1298 26.5053 19.6831 26.0744C19.2365 25.6424 19.2241 24.9303 19.655 24.4837C19.664 24.4747 19.673 24.4645 19.6831 24.4555L21.2739 22.8648L19.6831 21.2729C19.2365 20.8409 19.2241 20.1288 19.655 19.6822C20.087 19.2355 20.7991 19.2232 21.2458 19.654C21.2548 19.663 21.2649 19.672 21.2739 19.6822L22.8658 21.2729L24.4565 19.6822C24.8885 19.2355 25.6006 19.2232 26.0473 19.654C26.4939 20.086 26.5063 20.7982 26.0754 21.2448C26.0664 21.2538 26.0574 21.2639 26.0473 21.2729L24.4565 22.8648L26.0473 24.4555C26.4883 24.8932 26.4939 25.6019 26.0563 26.0429C26.054 26.0452 26.0529 26.0474 26.0473 26.0463Z" fill="white"/>
<path d="M16.2899 23.0169C16.2854 19.3077 19.288 16.2972 22.996 16.2916C24.4394 16.2894 25.8457 16.7529 27.0044 17.6135C28.999 10.4304 24.7927 2.99073 17.6107 0.996102C10.4287 -0.998524 2.99016 3.20673 0.995534 10.3899C-0.999091 17.573 3.20728 25.0137 10.3893 27.0084C12.7518 27.6642 15.2482 27.6642 17.6107 27.0084C16.7534 25.8541 16.2899 24.4546 16.2899 23.0169ZM15.1255 14.0247C15.1255 14.324 15.0063 14.6097 14.7948 14.8212L11.4142 18.203C10.9664 18.635 10.2532 18.6226 9.82116 18.1749C9.39928 17.7384 9.39928 17.0454 9.82116 16.6089L12.8722 13.5579V8.3896C12.8722 7.76748 13.3762 7.26235 13.9994 7.26235C14.6215 7.26235 15.1255 7.76748 15.1255 8.3896V14.0247Z" fill="white"/>
</g>
<defs>
<clipPath id="clip0_1836_8812">
<rect width="27" height="27" fill="white" transform="translate(0.5 0.5)"/>
</clipPath>
</defs>
</svg>
