<svg width="25" height="21" viewBox="0 0 25 21" fill="none" xmlns="http://www.w3.org/2000/svg">
<path d="M4.13855 20.0303C4.27113 20.0303 4.37853 19.9229 4.37853 19.7904V13.0454C4.37853 12.9128 4.27113 12.8054 4.13855 12.8054H2.21876C2.18724 12.8054 2.15603 12.8116 2.12692 12.8237C2.0978 12.8357 2.07134 12.8534 2.04906 12.8757C2.02677 12.898 2.0091 12.9244 1.99704 12.9535C1.98498 12.9827 1.97878 13.0139 1.97878 13.0454V19.7904C1.97878 19.9229 2.08619 20.0303 2.21876 20.0303H4.13855ZM4.13855 20.9902H2.21876C1.55606 20.9902 1.01889 20.4531 1.01889 19.7904V13.0454C1.01889 12.3827 1.55606 11.8455 2.21876 11.8455H4.13855C4.80125 11.8455 5.33843 12.3827 5.33843 13.0454V19.7904C5.33843 20.4531 4.80125 20.9902 4.13855 20.9902ZM10.6632 20.0303C10.7958 20.0303 10.9032 19.9229 10.9032 19.7904V11.6526C10.9032 11.52 10.7958 11.4126 10.6632 11.4126H8.74339C8.71188 11.4126 8.68067 11.4188 8.65155 11.4309C8.62243 11.4429 8.59598 11.4606 8.57369 11.4829C8.55141 11.5052 8.53373 11.5316 8.52167 11.5607C8.50961 11.5899 8.50341 11.6211 8.50342 11.6526V19.7904C8.50342 19.9229 8.61082 20.0303 8.74339 20.0303H10.6632ZM10.6632 20.9902H8.74339C8.0807 20.9902 7.54352 20.4531 7.54352 19.7904V11.6526C7.54352 10.9899 8.0807 10.4527 8.74339 10.4527H10.6632C11.3259 10.4527 11.8631 10.9899 11.8631 11.6526V19.7904C11.8631 20.4531 11.3259 20.9902 10.6632 20.9902ZM17.1878 20.0448C17.3204 20.0448 17.4278 19.9374 17.4278 19.8048V10.274C17.4278 10.1416 17.3203 10.034 17.1878 10.034H15.268C15.1356 10.034 15.0281 10.1416 15.0281 10.274V19.8048C15.0281 19.9374 15.1355 20.0448 15.268 20.0448H17.1878ZM17.1878 21.0047H15.268C14.6053 21.0047 14.0682 20.4675 14.0682 19.8048V10.274C14.0682 9.61148 14.6054 9.07414 15.268 9.07414H17.1878C17.8505 9.07414 18.3877 9.61148 18.3877 10.274V19.8048C18.3877 20.4675 17.8505 21.0047 17.1878 21.0047ZM23.7125 20.0449C23.845 20.0449 23.9524 19.9375 23.9524 19.8049V9.07418C23.9524 8.94161 23.845 8.83421 23.7125 8.83421H21.7927C21.7611 8.8342 21.7299 8.84041 21.7008 8.85246C21.6717 8.86452 21.6452 8.8822 21.623 8.90448C21.6007 8.92677 21.583 8.95322 21.5709 8.98234C21.5589 9.01146 21.5527 9.04267 21.5527 9.07418V19.8049C21.5527 19.9375 21.6601 20.0449 21.7927 20.0449H23.7125ZM23.7125 21.0048H21.7927C21.13 21.0048 20.5928 20.4676 20.5928 19.8049V9.07418C20.5928 8.41149 21.13 7.87431 21.7927 7.87431H23.7125C24.3752 7.87431 24.9123 8.41149 24.9123 9.07418V19.8049C24.9123 20.4676 24.3752 21.0048 23.7125 21.0048ZM23.567 1.27478C16.8036 5.08529 9.25489 7.33324 1.38018 7.80956C1.1156 7.82557 0.914084 8.05303 0.93009 8.31761C0.946097 8.58219 1.17356 8.78371 1.43814 8.7677C9.45891 8.28255 17.1487 5.99255 24.0382 2.11108C24.2691 1.98097 24.3509 1.68829 24.2208 1.45734C24.0907 1.22638 23.798 1.14467 23.567 1.27478Z" fill="black"/>
<path d="M22.0492 1.37201L24.4487 1.37562C24.7138 1.37602 24.929 1.16147 24.9294 0.896394C24.9298 0.631321 24.7152 0.416117 24.4501 0.415719L22.0506 0.41211C21.7855 0.411712 21.5703 0.626259 21.5699 0.891332C21.5695 1.15641 21.7841 1.37161 22.0492 1.37201Z" fill="black"/>
<path d="M23.9695 0.89427L23.9623 3.28059C23.9615 3.54566 24.1757 3.76119 24.4408 3.76199C24.7059 3.76279 24.9214 3.54857 24.9222 3.28349L24.9294 0.897176C24.9302 0.632102 24.716 0.41657 24.4509 0.415774C24.1858 0.414977 23.9703 0.629196 23.9695 0.89427Z" fill="black"/>
</svg>
