<svg xmlns="http://www.w3.org/2000/svg" version="1.1" xmlns:xlink="http://www.w3.org/1999/xlink" width="512" height="512" x="0" y="0" viewBox="0 0 512 512" style="enable-background:new 0 0 512 512" xml:space="preserve" class=""><g><circle cx="256" cy="137.25" r="40" style="fill-rule:evenodd;clip-rule:evenodd;stroke-width:22;stroke-linecap:round;stroke-linejoin:round;stroke-miterlimit:22.9256;" transform="rotate(-13.286 255.943 137.228)" fill-rule="evenodd" clip-rule="evenodd" fill="none" stroke="#030201" stroke-width="22" stroke-linecap="round" stroke-linejoin="round" stroke-miterlimit="22.9256" data-original="#33cccc" opacity="1"></circle><path d="M142.622 202.709 106 223.853V371M369.941 203.034l36.06 20.819V371M256 268.5v40" style="fill-rule:evenodd;clip-rule:evenodd;stroke-width:22;stroke-linecap:round;stroke-linejoin:round;stroke-miterlimit:2.6131;" fill-rule="evenodd" clip-rule="evenodd" fill="none" stroke="#030201" stroke-width="22" stroke-linecap="round" stroke-linejoin="round" stroke-miterlimit="2.6131" data-original="#33cccc" opacity="1"></path><circle cx="255.999" cy="361.5" r="48" style="fill-rule:evenodd;clip-rule:evenodd;stroke-width:22;stroke-linecap:round;stroke-linejoin:round;stroke-miterlimit:22.9256;" transform="rotate(-45.001 255.997 361.505)" fill-rule="evenodd" clip-rule="evenodd" fill="none" stroke="#000000" stroke-width="22" stroke-linecap="round" stroke-linejoin="round" stroke-miterlimit="22.9256" data-original="#000000"></circle><path d="M256 501h-90c0-49.706 40.294-90 90-90s90 40.294 90 90h-90z" style="fill-rule:evenodd;clip-rule:evenodd;stroke-width:22;stroke-linecap:round;stroke-linejoin:round;stroke-miterlimit:22.9256;" fill-rule="evenodd" clip-rule="evenodd" fill="none" stroke="#000000" stroke-width="22" stroke-linecap="round" stroke-linejoin="round" stroke-miterlimit="22.9256" data-original="#000000"></path><circle cx="106" cy="408" r="32" style="fill-rule:evenodd;clip-rule:evenodd;stroke-width:22;stroke-linecap:round;stroke-linejoin:round;stroke-miterlimit:22.9256;" transform="rotate(-63.435 106.003 408.013)" fill-rule="evenodd" clip-rule="evenodd" fill="none" stroke="#000000" stroke-width="22" stroke-linecap="round" stroke-linejoin="round" stroke-miterlimit="22.9256" data-original="#000000"></circle><path d="M106 501H46c0-33.137 26.863-60 60-60s60 26.863 60 60h-60z" style="fill-rule:evenodd;clip-rule:evenodd;stroke-width:22;stroke-linecap:round;stroke-linejoin:round;stroke-miterlimit:22.9256;" fill-rule="evenodd" clip-rule="evenodd" fill="none" stroke="#000000" stroke-width="22" stroke-linecap="round" stroke-linejoin="round" stroke-miterlimit="22.9256" data-original="#000000"></path><circle cx="406" cy="408" r="32" style="fill-rule:evenodd;clip-rule:evenodd;stroke-width:22;stroke-linecap:round;stroke-linejoin:round;stroke-miterlimit:22.9256;" transform="rotate(-63.435 406.013 408.013)" fill-rule="evenodd" clip-rule="evenodd" fill="none" stroke="#000000" stroke-width="22" stroke-linecap="round" stroke-linejoin="round" stroke-miterlimit="22.9256" data-original="#000000"></circle><path d="M406 501h-60c0-33.137 26.863-60 60-60s60 26.863 60 60h-60zM287.757 44.308a98.095 98.095 0 0 1 32.828 18.982l30.724-13.461 28.055 48.593-27.004 19.865a98.64 98.64 0 0 1 1.834 18.963 98.64 98.64 0 0 1-1.834 18.963l27.004 19.866-28.055 48.593-30.724-13.461a98.085 98.085 0 0 1-32.828 18.982l-3.701 33.308h-56.109l-3.701-33.307a98.077 98.077 0 0 1-32.83-18.982l-30.723 13.461-28.055-48.593 27.006-19.867a98.63 98.63 0 0 1-1.836-18.962 98.64 98.64 0 0 1 1.834-18.963l-27.004-19.865 28.055-48.593 30.724 13.461a98.085 98.085 0 0 1 32.828-18.982l3.7-33.309h56.11l3.702 33.308z" style="fill-rule:evenodd;clip-rule:evenodd;stroke-width:22;stroke-linecap:round;stroke-linejoin:round;stroke-miterlimit:22.9256;" fill-rule="evenodd" clip-rule="evenodd" fill="none" stroke="#000000" stroke-width="22" stroke-linecap="round" stroke-linejoin="round" stroke-miterlimit="22.9256" data-original="#000000"></path></g></svg>