<svg width="280" height="256" viewBox="0 0 280 256" fill="none" xmlns="http://www.w3.org/2000/svg">
<path d="M139.636 256L0 186.182L57.0182 157.091L0 128L57.0182 98.9091L0 69.8182L139.636 0L279.273 69.8182L222.255 98.9091L279.273 128L222.255 157.091L279.273 186.182L139.636 256ZM51.2 186.182L140.8 231.564L229.236 186.182L196.655 169.891L139.636 197.818L82.6182 168.727L51.2 186.182ZM51.2 128L140.8 173.382L229.236 128L196.655 111.709L139.636 140.8L82.6182 111.709L51.2 128ZM51.2 69.8182L140.8 115.2L229.236 69.8182L139.636 25.6L51.2 69.8182Z" fill="#22CAAD"/>
</svg>
