<svg width="32" height="32" viewBox="0 0 32 32" fill="none" xmlns="http://www.w3.org/2000/svg">
<path d="M10.6667 22.5641C10.671 19.41 11.9259 16.3864 14.1561 14.1561C16.3864 11.9259 19.41 10.671 22.5641 10.6667C23.8199 10.6641 25.0675 10.8693 26.2564 11.2738C27.1238 11.5397 27.9517 11.9205 28.7179 12.4061V2.87179C28.7136 2.11148 28.4097 1.38352 27.872 0.845889C27.3344 0.308254 26.6065 0.00430786 25.8461 0H20.5128V6.15384C20.5085 6.91416 20.2046 7.64211 19.6669 8.17975C19.1293 8.71738 18.4013 9.02133 17.641 9.02564H11.0769C10.3166 9.02133 9.58865 8.71738 9.05101 8.17975C8.51338 7.64211 8.20943 6.91416 8.20512 6.15384V0H2.87179C2.11148 0.00430786 1.38352 0.308254 0.845889 0.845889C0.308254 1.38352 0.00430786 2.11148 0 2.87179V25.8461C0.00430786 26.6065 0.308254 27.3344 0.845889 27.872C1.38352 28.4097 2.11148 28.7136 2.87179 28.7179H12.4061C11.9205 27.9517 11.5397 27.1238 11.2738 26.2564C10.8693 25.0675 10.6641 23.8199 10.6667 22.5641Z" fill="white"/>
<path d="M11.0758 6.5641H17.6399C17.7487 6.5641 17.853 6.52088 17.93 6.44394C18.0069 6.367 18.0501 6.26265 18.0501 6.15384V0H10.6655V6.15384C10.6655 6.26265 10.7088 6.367 10.7857 6.44394C10.8626 6.52088 10.967 6.5641 11.0758 6.5641Z" fill="white"/>
<path d="M22.5638 13.1284C20.6976 13.1284 18.8733 13.6818 17.3215 14.7187C15.7698 15.7555 14.5604 17.2292 13.8462 18.9534C13.132 20.6775 12.9452 22.5748 13.3092 24.4052C13.6733 26.2356 14.572 27.9169 15.8916 29.2365C17.2113 30.5561 18.8926 31.4548 20.723 31.8189C22.5534 32.183 24.4506 31.9961 26.1748 31.282C27.899 30.5678 29.3727 29.3584 30.4095 27.8066C31.4463 26.2549 31.9997 24.4306 31.9997 22.5643C32.0019 21.3246 31.7593 20.0966 31.2859 18.9508C30.8124 17.805 30.1175 16.764 29.2408 15.8873C28.3642 15.0107 27.3231 14.3157 26.1773 13.8423C25.0316 13.3689 23.8036 13.1263 22.5638 13.1284ZM25.8459 21.793L22.5638 25.0751C22.3331 25.3056 22.0202 25.435 21.6941 25.435C21.3679 25.435 21.0551 25.3056 20.8243 25.0751L19.1833 23.4341C18.9659 23.2008 18.8476 22.8922 18.8532 22.5733C18.8588 22.2545 18.988 21.9502 19.2135 21.7247C19.439 21.4992 19.7432 21.3701 20.062 21.3644C20.3809 21.3588 20.6895 21.4772 20.9228 21.6946L21.6941 22.4659L24.2049 20.0536C24.3063 19.8971 24.4419 19.7658 24.6016 19.6694C24.7612 19.5731 24.9406 19.5142 25.1263 19.4974C25.312 19.4805 25.4991 19.5061 25.6734 19.5721C25.8478 19.6381 26.0049 19.7429 26.1328 19.8785C26.2608 20.0142 26.3562 20.1771 26.412 20.355C26.4677 20.5329 26.4824 20.7212 26.4547 20.9055C26.4271 21.0899 26.3579 21.2656 26.2525 21.4194C26.147 21.5731 26.008 21.7009 25.8459 21.793Z" fill="white"/>
</svg>
