<svg width="22" height="22" viewBox="0 0 22 22" fill="none" xmlns="http://www.w3.org/2000/svg">
<path d="M6.83882 17.7284H5.07878C2.38378 17.5359 1.17383 15.4642 1.17383 13.6217C1.17383 11.7792 2.38379 9.69839 5.03296 9.51506C5.40879 9.47839 5.73878 9.77172 5.76628 10.1567C5.79378 10.5326 5.50966 10.8626 5.12466 10.8901C3.34633 11.0184 2.54883 12.3567 2.54883 13.6309C2.54883 14.9051 3.34633 16.2434 5.12466 16.3717H6.83882C7.21465 16.3717 7.52632 16.6834 7.52632 17.0592C7.52632 17.4351 7.21465 17.7284 6.83882 17.7284Z" fill="#292D32"/>
<path d="M15.2813 17.7283C15.263 17.7283 15.2538 17.7283 15.2355 17.7283C14.8597 17.7283 14.5113 17.4166 14.5113 17.0408C14.5113 16.6466 14.8047 16.3533 15.1897 16.3533C16.3172 16.3533 17.3255 15.9591 18.1138 15.2533C19.5438 14.0066 19.6355 12.2099 19.2505 10.9449C18.8655 9.68909 17.793 8.24992 15.923 8.02075C15.6205 7.98409 15.3821 7.75492 15.3271 7.45243C14.9605 5.25242 13.778 3.73076 11.9813 3.18076C10.1297 2.60326 7.9663 3.17159 6.6188 4.58325C5.30796 5.94909 5.00547 7.86492 5.7663 9.97326C5.89464 10.3308 5.71135 10.7249 5.35385 10.8533C4.99635 10.9816 4.60216 10.7983 4.47383 10.4408C3.548 7.85575 3.96967 5.38076 5.62884 3.63909C7.32467 1.86075 10.0472 1.15491 12.3847 1.86991C14.5297 2.52991 16.0421 4.29908 16.5921 6.75575C18.4621 7.17742 19.9655 8.59826 20.5613 10.5599C21.2122 12.6958 20.6255 14.8958 19.0213 16.2891C18.0038 17.2058 16.6746 17.7283 15.2813 17.7283Z" fill="#292D32"/>
<path d="M10.9993 20.4233C9.15685 20.4233 7.43353 19.4424 6.48936 17.8566C6.38853 17.7008 6.2877 17.5174 6.2052 17.3158C5.89353 16.6649 5.72852 15.9224 5.72852 15.1524C5.72852 12.2466 8.09352 9.88159 10.9993 9.88159C13.9052 9.88159 16.2702 12.2466 16.2702 15.1524C16.2702 15.9316 16.1052 16.6649 15.7752 17.3433C15.7019 17.5174 15.601 17.7008 15.491 17.8749C14.5652 19.4424 12.8418 20.4233 10.9993 20.4233ZM10.9993 11.2566C8.85435 11.2566 7.10352 13.0074 7.10352 15.1524C7.10352 15.7208 7.22269 16.2524 7.45185 16.7383C7.52519 16.8941 7.58934 17.0224 7.66267 17.1416C8.35934 18.3241 9.63351 19.0483 10.9902 19.0483C12.3468 19.0483 13.621 18.3241 14.3085 17.1599C14.391 17.0224 14.4644 16.8941 14.5194 16.7658C14.7669 16.2616 14.886 15.7299 14.886 15.1616C14.8952 13.0074 13.1443 11.2566 10.9993 11.2566Z" fill="#292D32"/>
<path d="M10.4775 16.7474C10.3033 16.7474 10.1292 16.6833 9.99169 16.5458L9.08414 15.6383C8.81831 15.3724 8.81831 14.9324 9.08414 14.6666C9.34997 14.4008 9.78997 14.4008 10.0558 14.6666L10.4958 15.1066L11.9625 13.7499C12.2467 13.4933 12.6775 13.5116 12.9342 13.7866C13.1908 14.0616 13.1725 14.5016 12.8975 14.7583L10.945 16.5641C10.8075 16.6833 10.6425 16.7474 10.4775 16.7474Z" fill="#292D32"/>
</svg>
