<svg width="24" height="22" viewBox="0 0 24 22" fill="none" xmlns="http://www.w3.org/2000/svg">
<path d="M18.1111 17.25H18.1233M16.4 13.5H19.3333C20.4723 13.5 21.0418 13.5 21.491 13.6902C22.0899 13.944 22.5659 14.4308 22.814 15.0433C23 15.5028 23 16.0851 23 17.25C23 18.4149 23 18.9972 22.814 19.4567C22.5659 20.0692 22.0899 20.556 21.491 20.8097C21.0418 21 20.4723 21 19.3333 21H4.66667C3.5277 21 2.95822 21 2.50899 20.8097C1.91004 20.556 1.43417 20.0692 1.18607 19.4567C1 18.9972 1 18.4149 1 17.25C1 16.0851 1 15.5028 1.18607 15.0433C1.43417 14.4308 1.91004 13.944 2.50899 13.6902C2.95822 13.5 3.5277 13.5 4.66667 13.5H7.6M12 14.75V1M12 1L15.6667 4.75M12 1L8.33333 4.75" stroke="black" stroke-width="2" stroke-linecap="round" stroke-linejoin="round"/>
</svg>
